<svg width="597" height="229" viewBox="0 0 597 229" fill="none" xmlns="http://www.w3.org/2000/svg">
<path d="M12.72 38.96H33.64L33.76 41.08H12.52L12.72 38.96ZM16.72 60.12C16.72 60.3867 16.6267 60.6 16.44 60.76C16.2533 60.92 15.9733 61 15.6 61H1.96C1.58667 61 1.30667 60.92 1.12 60.76C0.933333 60.6 0.84 60.3867 0.84 60.12C0.84 59.88 0.906667 59.6933 1.04 59.56C1.17333 59.4267 1.37333 59.3067 1.64 59.2L2.76 58.76C3.69333 58.3867 4.58667 57.7067 5.44 56.72C6.32 55.7067 7.06667 54.1733 7.68 52.12L19.64 11.96C20.0133 10.6533 20.0667 9.64 19.8 8.92C19.5333 8.17333 18.9867 7.58666 18.16 7.16C17.68 6.86666 17.3333 6.64 17.12 6.48C16.9067 6.32 16.8 6.12 16.8 5.88C16.8 5.58666 16.8933 5.37333 17.08 5.24C17.2933 5.08 17.6 5 18 5H37.72C38.12 5 38.4133 5.08 38.6 5.24C38.7867 5.37333 38.88 5.58666 38.88 5.88C38.88 6.12 38.7733 6.33333 38.56 6.52C38.3733 6.70666 38.04 6.89333 37.56 7.08C37 7.26666 36.6533 7.53333 36.52 7.88C36.4133 8.22666 36.4933 8.82666 36.76 9.68L51.48 56.08C51.7733 56.96 52.12 57.6267 52.52 58.08C52.92 58.5333 53.4267 58.84 54.04 59C54.44 59.16 54.7067 59.32 54.84 59.48C55 59.64 55.08 59.8533 55.08 60.12C55.08 60.3867 54.9733 60.6 54.76 60.76C54.5733 60.92 54.28 61 53.88 61H33.84C33.4667 61 33.1733 60.92 32.96 60.76C32.7733 60.6 32.68 60.3867 32.68 60.12C32.68 59.88 32.76 59.6933 32.92 59.56C33.08 59.4267 33.32 59.3067 33.64 59.2L35.32 58.76C36.04 58.5467 36.44 58.24 36.52 57.84C36.6 57.44 36.5067 56.8133 36.24 55.96L21.96 10.52L23.16 8.28L10.2 52C9.82667 53.2 9.77333 54.24 10.04 55.12C10.3333 56 10.8667 56.7333 11.64 57.32C12.44 57.9067 13.44 58.4133 14.64 58.84L15.84 59.2C16.1333 59.3067 16.3467 59.4267 16.48 59.56C16.64 59.6933 16.72 59.88 16.72 60.12ZM89.3331 34.32C89.3331 36.0533 88.7998 37.4667 87.7331 38.56C86.6665 39.6267 85.1998 40.16 83.3331 40.16C81.4665 40.16 80.0265 39.6267 79.0131 38.56C77.9998 37.4667 77.4931 35.9333 77.4931 33.96V31.16C77.4931 29.48 77.1065 28.1733 76.3331 27.24C75.5598 26.3067 74.5198 25.84 73.2131 25.84C71.9331 25.84 70.7998 26.3333 69.8131 27.32C68.8531 28.28 68.0931 29.68 67.5331 31.52C66.9998 33.36 66.7331 35.5867 66.7331 38.2C66.7331 41.5867 67.2265 44.44 68.2131 46.76C69.2265 49.08 70.5998 50.84 72.3331 52.04C74.0665 53.24 76.0531 53.84 78.2931 53.84C80.5865 53.84 82.5465 53.4 84.1731 52.52C85.7998 51.64 86.9731 50.24 87.6931 48.32C87.8798 48.0533 88.0398 47.88 88.1731 47.8C88.3331 47.6933 88.4931 47.6533 88.6531 47.68C88.8398 47.68 88.9731 47.7733 89.0531 47.96C89.1598 48.1467 89.1998 48.3733 89.1731 48.64C88.7998 51.3067 87.8798 53.6267 86.4131 55.6C84.9731 57.5733 83.0798 59.1067 80.7331 60.2C78.3865 61.2933 75.6931 61.84 72.6531 61.84C69.2665 61.84 66.2398 61.1467 63.5731 59.76C60.9065 58.3467 58.7998 56.2933 57.2531 53.6C55.7331 50.9067 54.9731 47.6267 54.9731 43.76C54.9731 39.92 55.7865 36.5067 57.4131 33.52C59.0398 30.5333 61.3065 28.1733 64.2131 26.44C67.1198 24.68 70.4931 23.8 74.3331 23.8C77.5598 23.8 80.2798 24.2667 82.4931 25.2C84.7331 26.1333 86.4265 27.4 87.5731 29C88.7465 30.5733 89.3331 32.3467 89.3331 34.32ZM124.755 34.32C124.755 36.0533 124.222 37.4667 123.155 38.56C122.088 39.6267 120.622 40.16 118.755 40.16C116.888 40.16 115.448 39.6267 114.435 38.56C113.422 37.4667 112.915 35.9333 112.915 33.96V31.16C112.915 29.48 112.528 28.1733 111.755 27.24C110.982 26.3067 109.942 25.84 108.635 25.84C107.355 25.84 106.222 26.3333 105.235 27.32C104.275 28.28 103.515 29.68 102.955 31.52C102.422 33.36 102.155 35.5867 102.155 38.2C102.155 41.5867 102.648 44.44 103.635 46.76C104.648 49.08 106.022 50.84 107.755 52.04C109.488 53.24 111.475 53.84 113.715 53.84C116.008 53.84 117.968 53.4 119.595 52.52C121.222 51.64 122.395 50.24 123.115 48.32C123.302 48.0533 123.462 47.88 123.595 47.8C123.755 47.6933 123.915 47.6533 124.075 47.68C124.262 47.68 124.395 47.7733 124.475 47.96C124.582 48.1467 124.622 48.3733 124.595 48.64C124.222 51.3067 123.302 53.6267 121.835 55.6C120.395 57.5733 118.502 59.1067 116.155 60.2C113.808 61.2933 111.115 61.84 108.075 61.84C104.688 61.84 101.662 61.1467 98.995 59.76C96.3283 58.3467 94.2217 56.2933 92.675 53.6C91.155 50.9067 90.395 47.6267 90.395 43.76C90.395 39.92 91.2083 36.5067 92.835 33.52C94.4617 30.5333 96.7283 28.1733 99.635 26.44C102.542 24.68 105.915 23.8 109.755 23.8C112.982 23.8 115.702 24.2667 117.915 25.2C120.155 26.1333 121.848 27.4 122.995 29C124.168 30.5733 124.755 32.3467 124.755 34.32ZM161.457 39.64C161.457 40.3067 161.257 40.8267 160.857 41.2C160.484 41.5733 159.91 41.76 159.137 41.76H134.417V40.12H147.777C148.524 40.12 148.897 39.7333 148.897 38.96C148.897 34.4 148.35 31.0667 147.257 28.96C146.164 26.8533 144.857 25.8 143.337 25.8C142.19 25.8 141.164 26.24 140.257 27.12C139.35 28 138.63 29.3867 138.097 31.28C137.59 33.1733 137.337 35.6267 137.337 38.64C137.337 44 138.47 47.96 140.737 50.52C143.03 53.08 146.057 54.36 149.817 54.36C152.43 54.36 154.63 53.7333 156.417 52.48C158.23 51.2267 159.35 49.48 159.777 47.24C159.964 46.9733 160.124 46.8 160.257 46.72C160.417 46.64 160.55 46.6 160.657 46.6C160.844 46.6 160.99 46.68 161.097 46.84C161.23 47 161.284 47.24 161.257 47.56C161.204 50.2267 160.43 52.6533 158.937 54.84C157.47 57 155.47 58.72 152.937 60C150.404 61.2533 147.537 61.88 144.337 61.88C140.71 61.88 137.497 61.12 134.697 59.6C131.924 58.0533 129.737 55.9067 128.137 53.16C126.564 50.3867 125.777 47.1867 125.777 43.56C125.777 39.56 126.55 36.0933 128.097 33.16C129.644 30.2 131.857 27.9067 134.737 26.28C137.617 24.6267 141.017 23.8 144.937 23.8C148.377 23.8 151.324 24.4933 153.777 25.88C156.23 27.24 158.124 29.12 159.457 31.52C160.79 33.8933 161.457 36.6 161.457 39.64ZM179.087 59.88C180.74 59.88 182.02 59.48 182.927 58.68C183.86 57.8533 184.327 56.7867 184.327 55.48C184.327 54.5733 184.114 53.7467 183.687 53C183.287 52.2533 182.554 51.56 181.487 50.92C180.42 50.28 178.914 49.68 176.967 49.12C173.26 48.08 170.38 46.9067 168.327 45.6C166.3 44.2667 164.874 42.76 164.047 41.08C163.247 39.4 162.847 37.5067 162.847 35.4C162.847 31.72 164.1 28.8667 166.607 26.84C169.14 24.8133 172.634 23.8 177.087 23.8C178.82 23.8 180.234 23.96 181.327 24.28C182.42 24.5733 183.274 24.88 183.887 25.2C184.5 25.4933 184.954 25.64 185.247 25.64C185.647 25.64 186.167 25.4933 186.807 25.2C187.474 24.88 188.127 24.5733 188.767 24.28C189.407 23.96 189.914 23.8 190.287 23.8C190.5 23.8 190.7 23.8667 190.887 24C191.1 24.1333 191.26 24.4 191.367 24.8L193.407 35.6C193.54 36.1067 193.567 36.52 193.487 36.84C193.434 37.1333 193.274 37.3467 193.007 37.48C192.714 37.56 192.46 37.56 192.247 37.48C192.034 37.3733 191.834 37.1733 191.647 36.88C190.02 34.08 188.46 31.8667 186.967 30.24C185.5 28.5867 184.007 27.4133 182.487 26.72C180.994 26.0267 179.394 25.68 177.687 25.68C175.847 25.68 174.447 26.12 173.487 27C172.554 27.8533 172.087 29 172.087 30.44C172.087 31.4 172.314 32.28 172.767 33.08C173.247 33.88 174.114 34.6133 175.367 35.28C176.647 35.9467 178.474 36.5867 180.847 37.2C184.02 38 186.54 39.0267 188.407 40.28C190.274 41.5333 191.607 42.9867 192.407 44.64C193.234 46.2933 193.647 48.1467 193.647 50.2C193.647 52.5733 193.047 54.64 191.847 56.4C190.647 58.1333 189.02 59.48 186.967 60.44C184.94 61.4 182.66 61.88 180.127 61.88C178.527 61.88 177.18 61.68 176.087 61.28C175.02 60.9067 174.154 60.5333 173.487 60.16C172.82 59.7867 172.327 59.6 172.007 59.6C171.687 59.6 171.207 59.7733 170.567 60.12C169.954 60.4667 169.327 60.8133 168.687 61.16C168.047 61.5333 167.554 61.72 167.207 61.72C166.94 61.72 166.7 61.6133 166.487 61.4C166.3 61.1867 166.167 60.84 166.087 60.36L164.567 51.04C164.487 50.4533 164.474 50.0267 164.527 49.76C164.607 49.4667 164.78 49.2533 165.047 49.12C165.314 49.0133 165.554 49.0267 165.767 49.16C165.98 49.2933 166.194 49.52 166.407 49.84C168.594 53.4667 170.727 56.0533 172.807 57.6C174.914 59.12 177.007 59.88 179.087 59.88ZM212.087 59.88C213.74 59.88 215.02 59.48 215.927 58.68C216.86 57.8533 217.327 56.7867 217.327 55.48C217.327 54.5733 217.114 53.7467 216.687 53C216.287 52.2533 215.554 51.56 214.487 50.92C213.42 50.28 211.914 49.68 209.967 49.12C206.26 48.08 203.38 46.9067 201.327 45.6C199.3 44.2667 197.874 42.76 197.047 41.08C196.247 39.4 195.847 37.5067 195.847 35.4C195.847 31.72 197.1 28.8667 199.607 26.84C202.14 24.8133 205.634 23.8 210.087 23.8C211.82 23.8 213.234 23.96 214.327 24.28C215.42 24.5733 216.274 24.88 216.887 25.2C217.5 25.4933 217.954 25.64 218.247 25.64C218.647 25.64 219.167 25.4933 219.807 25.2C220.474 24.88 221.127 24.5733 221.767 24.28C222.407 23.96 222.914 23.8 223.287 23.8C223.5 23.8 223.7 23.8667 223.887 24C224.1 24.1333 224.26 24.4 224.367 24.8L226.407 35.6C226.54 36.1067 226.567 36.52 226.487 36.84C226.434 37.1333 226.274 37.3467 226.007 37.48C225.714 37.56 225.46 37.56 225.247 37.48C225.034 37.3733 224.834 37.1733 224.647 36.88C223.02 34.08 221.46 31.8667 219.967 30.24C218.5 28.5867 217.007 27.4133 215.487 26.72C213.994 26.0267 212.394 25.68 210.687 25.68C208.847 25.68 207.447 26.12 206.487 27C205.554 27.8533 205.087 29 205.087 30.44C205.087 31.4 205.314 32.28 205.767 33.08C206.247 33.88 207.114 34.6133 208.367 35.28C209.647 35.9467 211.474 36.5867 213.847 37.2C217.02 38 219.54 39.0267 221.407 40.28C223.274 41.5333 224.607 42.9867 225.407 44.64C226.234 46.2933 226.647 48.1467 226.647 50.2C226.647 52.5733 226.047 54.64 224.847 56.4C223.647 58.1333 222.02 59.48 219.967 60.44C217.94 61.4 215.66 61.88 213.127 61.88C211.527 61.88 210.18 61.68 209.087 61.28C208.02 60.9067 207.154 60.5333 206.487 60.16C205.82 59.7867 205.327 59.6 205.007 59.6C204.687 59.6 204.207 59.7733 203.567 60.12C202.954 60.4667 202.327 60.8133 201.687 61.16C201.047 61.5333 200.554 61.72 200.207 61.72C199.94 61.72 199.7 61.6133 199.487 61.4C199.3 61.1867 199.167 60.84 199.087 60.36L197.567 51.04C197.487 50.4533 197.474 50.0267 197.527 49.76C197.607 49.4667 197.78 49.2533 198.047 49.12C198.314 49.0133 198.554 49.0267 198.767 49.16C198.98 49.2933 199.194 49.52 199.407 49.84C201.594 53.4667 203.727 56.0533 205.807 57.6C207.914 59.12 210.007 59.88 212.087 59.88ZM244.927 25.12V57.12C244.927 57.68 245.007 58.1067 245.167 58.4C245.327 58.6667 245.594 58.8533 245.967 58.96L247.607 59.36C247.9 59.44 248.1 59.56 248.207 59.72C248.34 59.8533 248.407 60.0133 248.407 60.2C248.407 60.44 248.327 60.64 248.167 60.8C248.007 60.9333 247.74 61 247.367 61H229.767C229.447 61 229.194 60.9333 229.007 60.8C228.847 60.64 228.767 60.44 228.767 60.2C228.767 60.0133 228.82 59.8533 228.927 59.72C229.034 59.56 229.234 59.44 229.527 59.36L231.247 58.96C231.62 58.8533 231.887 58.6667 232.047 58.4C232.207 58.1067 232.287 57.68 232.287 57.12V30.64C232.287 30.2933 232.22 30.04 232.087 29.88C231.954 29.6933 231.74 29.5867 231.447 29.56L229.567 29.52C229.3 29.4667 229.1 29.3733 228.967 29.24C228.86 29.1067 228.807 28.9467 228.807 28.76C228.807 28.52 228.874 28.3333 229.007 28.2C229.167 28.0667 229.407 27.9467 229.727 27.84L241.487 24.32C242.074 24.1333 242.5 24.0133 242.767 23.96C243.06 23.88 243.34 23.84 243.607 23.84C244.034 23.84 244.354 23.96 244.567 24.2C244.807 24.44 244.927 24.7467 244.927 25.12ZM238.207 19.8C235.994 19.8 234.207 19.16 232.847 17.88C231.514 16.5733 230.847 14.92 230.847 12.92C230.847 10.9467 231.527 9.32 232.887 8.04C234.247 6.73333 236.02 6.08 238.207 6.08C240.42 6.08 242.22 6.73333 243.607 8.04C244.994 9.34666 245.687 10.9733 245.687 12.92C245.687 14.92 244.994 16.5733 243.607 17.88C242.22 19.16 240.42 19.8 238.207 19.8ZM264.109 2.36V58.24L254.909 61.16C254.295 61.3733 253.815 61.52 253.469 61.6C253.149 61.68 252.855 61.72 252.589 61.72C252.269 61.72 252.002 61.6267 251.789 61.44C251.575 61.2533 251.469 61 251.469 60.68V7.92C251.469 7.57333 251.402 7.32 251.269 7.16C251.162 6.97333 250.962 6.86666 250.669 6.84L248.749 6.76C248.482 6.73333 248.295 6.65333 248.189 6.52C248.082 6.38666 248.029 6.22666 248.029 6.04C248.029 5.8 248.095 5.61333 248.229 5.48C248.362 5.34667 248.589 5.22667 248.909 5.12L260.709 1.6C261.269 1.41333 261.695 1.28 261.989 1.2C262.282 1.12 262.562 1.08 262.829 1.08C263.255 1.08 263.575 1.2 263.789 1.44C264.002 1.68 264.109 1.98667 264.109 2.36ZM262.789 32.76L261.709 31.56C263.575 28.9733 265.549 27.04 267.629 25.76C269.735 24.48 272.109 23.84 274.749 23.84C277.789 23.84 280.469 24.5733 282.789 26.04C285.109 27.48 286.922 29.5333 288.229 32.2C289.535 34.8667 290.189 38.04 290.189 41.72C290.189 45.7733 289.415 49.32 287.869 52.36C286.349 55.3733 284.242 57.72 281.549 59.4C278.855 61.0533 275.789 61.88 272.349 61.88C269.602 61.88 267.322 61.36 265.509 60.32C263.722 59.28 262.255 57.7333 261.109 55.68L262.789 54.6C263.562 56.12 264.495 57.2667 265.589 58.04C266.682 58.7867 267.949 59.16 269.389 59.16C270.909 59.16 272.255 58.6533 273.429 57.64C274.629 56.6267 275.562 54.9333 276.229 52.56C276.922 50.16 277.269 46.9333 277.269 42.88C277.269 39.2267 276.962 36.28 276.349 34.04C275.762 31.8 274.935 30.16 273.869 29.12C272.829 28.08 271.615 27.56 270.229 27.56C268.895 27.56 267.589 27.9867 266.309 28.84C265.055 29.6667 263.882 30.9733 262.789 32.76ZM308.08 2.36V57.12C308.08 57.68 308.16 58.1067 308.32 58.4C308.507 58.6667 308.787 58.8533 309.16 58.96L310.8 59.36C311.093 59.44 311.293 59.56 311.4 59.72C311.533 59.8533 311.6 60.0133 311.6 60.2C311.6 60.44 311.507 60.64 311.32 60.8C311.16 60.9333 310.907 61 310.56 61H292.96C292.613 61 292.347 60.9333 292.16 60.8C292 60.64 291.92 60.44 291.92 60.2C291.92 60.0133 291.987 59.8533 292.12 59.72C292.253 59.56 292.467 59.4267 292.76 59.32L294.4 58.96C294.8 58.8533 295.067 58.6667 295.2 58.4C295.36 58.1067 295.44 57.68 295.44 57.12V7.92C295.44 7.57333 295.373 7.32 295.24 7.16C295.133 6.97333 294.933 6.86666 294.64 6.84L292.72 6.76C292.453 6.73333 292.267 6.65333 292.16 6.52C292.053 6.38666 292 6.22666 292 6.04C292 5.8 292.067 5.61333 292.2 5.48C292.333 5.34667 292.56 5.22667 292.88 5.12L304.68 1.6C305.24 1.41333 305.667 1.28 305.96 1.2C306.253 1.12 306.533 1.08 306.8 1.08C307.227 1.08 307.547 1.2 307.76 1.44C307.973 1.68 308.08 1.98667 308.08 2.36ZM348.051 39.64C348.051 40.3067 347.851 40.8267 347.451 41.2C347.077 41.5733 346.504 41.76 345.731 41.76H321.011V40.12H334.371C335.117 40.12 335.491 39.7333 335.491 38.96C335.491 34.4 334.944 31.0667 333.851 28.96C332.757 26.8533 331.451 25.8 329.931 25.8C328.784 25.8 327.757 26.24 326.851 27.12C325.944 28 325.224 29.3867 324.691 31.28C324.184 33.1733 323.931 35.6267 323.931 38.64C323.931 44 325.064 47.96 327.331 50.52C329.624 53.08 332.651 54.36 336.411 54.36C339.024 54.36 341.224 53.7333 343.011 52.48C344.824 51.2267 345.944 49.48 346.371 47.24C346.557 46.9733 346.717 46.8 346.851 46.72C347.011 46.64 347.144 46.6 347.251 46.6C347.437 46.6 347.584 46.68 347.691 46.84C347.824 47 347.877 47.24 347.851 47.56C347.797 50.2267 347.024 52.6533 345.531 54.84C344.064 57 342.064 58.72 339.531 60C336.997 61.2533 334.131 61.88 330.931 61.88C327.304 61.88 324.091 61.12 321.291 59.6C318.517 58.0533 316.331 55.9067 314.731 53.16C313.157 50.3867 312.371 47.1867 312.371 43.56C312.371 39.56 313.144 36.0933 314.691 33.16C316.237 30.2 318.451 27.9067 321.331 26.28C324.211 24.6267 327.611 23.8 331.531 23.8C334.971 23.8 337.917 24.4933 340.371 25.88C342.824 27.24 344.717 29.12 346.051 31.52C347.384 33.8933 348.051 36.6 348.051 39.64ZM411.191 62.16C408.151 62.16 405.284 61.8 402.591 61.08C399.924 60.36 397.444 59.1733 395.151 57.52C392.884 55.8667 390.817 53.6533 388.951 50.88C387.137 48.16 385.684 45.48 384.591 42.84C383.524 40.2 382.751 37.6267 382.271 35.12C381.791 32.5867 381.551 30.1467 381.551 27.8C381.551 24.36 382.231 21.3067 383.591 18.64C384.977 15.9733 386.951 13.88 389.511 12.36C392.071 10.84 395.137 10.08 398.711 10.08C401.244 10.08 403.484 10.56 405.431 11.52C407.377 12.48 408.897 13.8 409.991 15.48C411.084 17.16 411.631 19.0933 411.631 21.28C411.631 23.8933 410.897 26.16 409.431 28.08C407.964 29.9733 405.884 31.4667 403.191 32.56C400.497 33.6267 397.284 34.2 393.551 34.28L393.311 33.28C394.751 33.2 396.031 32.6533 397.151 31.64C398.271 30.6267 399.151 29.1867 399.791 27.32C400.457 25.4267 400.791 23.16 400.791 20.52C400.791 17.96 400.551 15.88 400.071 14.28C399.617 12.6533 398.871 11.84 397.831 11.84C396.604 11.84 395.537 12.7467 394.631 14.56C393.751 16.3467 393.311 18.6133 393.311 21.36C393.311 24.2933 393.604 27.0533 394.191 29.64C394.777 32.2267 395.657 34.7467 396.831 37.2C398.031 39.6533 399.524 42.16 401.311 44.72C403.631 48 405.671 50.6 407.431 52.52C409.191 54.44 410.911 55.8133 412.591 56.64C414.271 57.4667 416.111 57.88 418.111 57.88C420.564 57.88 422.724 57.2667 424.591 56.04C426.484 54.8133 427.964 52.9467 429.031 50.44C430.097 47.9333 430.631 44.7733 430.631 40.96C430.631 36.4 429.724 31.8667 427.911 27.36C426.124 22.8267 423.511 18.72 420.071 15.04C416.577 11.2 412.404 8.12 407.551 5.8C402.724 3.48 397.497 2.31999 391.871 2.31999C387.844 2.31999 384.511 2.78666 381.871 3.72C379.231 4.65333 377.271 5.96 375.991 7.64C374.711 9.29333 374.071 11.24 374.071 13.48C374.071 14.6533 374.177 15.6933 374.391 16.6C374.631 17.5067 374.897 18.36 375.191 19.16C375.484 19.96 375.737 20.8 375.951 21.68C376.191 22.5333 376.311 23.52 376.311 24.64C376.311 26.2933 375.777 27.6667 374.711 28.76C373.644 29.8267 372.271 30.36 370.591 30.36C368.457 30.36 366.791 29.5867 365.591 28.04C364.391 26.4667 363.791 24.2667 363.791 21.44C363.791 17.3867 364.897 13.8133 367.111 10.72C369.324 7.62666 372.537 5.2 376.751 3.44C380.991 1.68 386.111 0.799995 392.111 0.799995C397.897 0.799995 403.311 2 408.351 4.4C413.417 6.77333 417.791 9.96 421.471 13.96C424.964 17.6933 427.657 21.8933 429.551 26.56C431.444 31.2267 432.391 36.0133 432.391 40.92C432.391 45.5333 431.564 49.4267 429.911 52.6C428.284 55.7467 425.884 58.1333 422.711 59.76C419.564 61.36 415.724 62.16 411.191 62.16ZM406.591 52.84C407.791 52.0667 408.737 51.16 409.431 50.12C410.151 49.0533 410.657 47.9733 410.951 46.88C411.244 45.7867 411.391 44.8133 411.391 43.96C411.391 42.7067 411.271 41.6533 411.031 40.8C410.817 39.9467 410.591 39.1467 410.351 38.4C410.111 37.6267 409.991 36.76 409.991 35.8C409.991 34.2267 410.591 32.8533 411.791 31.68C412.991 30.48 414.511 29.88 416.351 29.88C418.057 29.88 419.497 30.5333 420.671 31.84C421.844 33.12 422.431 34.9733 422.431 37.4C422.431 40.8667 421.137 44.0533 418.551 46.96C415.964 49.84 412.151 52.1067 407.111 53.76L406.591 52.84ZM383.511 35.32C382.204 35.4267 381.071 35.9467 380.111 36.88C379.177 37.8133 378.444 39.04 377.911 40.56C377.404 42.0533 377.151 43.7067 377.151 45.52C377.151 49.1467 378.017 51.9733 379.751 54C381.484 56.0267 383.884 57.04 386.951 57.04C388.471 57.04 389.791 56.84 390.911 56.44C392.057 56.04 393.084 55.4667 393.991 54.72L394.831 56.28C393.657 57.3733 392.324 58.3467 390.831 59.2C389.337 60.0533 387.564 60.72 385.511 61.2C383.484 61.7067 381.044 61.96 378.191 61.96C373.417 61.96 369.724 60.8 367.111 58.48C364.497 56.1333 363.191 52.96 363.191 48.96C363.191 46 363.977 43.44 365.551 41.28C367.124 39.0933 369.417 37.3867 372.431 36.16C375.471 34.9333 379.151 34.2667 383.471 34.16L383.511 35.32ZM52.6 118.08C52.44 120.507 51.7867 122.827 50.64 125.04C49.4933 127.227 47.9333 129.173 45.96 130.88C43.9867 132.56 41.6533 133.893 38.96 134.88C36.2933 135.84 33.3467 136.32 30.12 136.32C24.5467 136.32 19.7333 135.12 15.68 132.72C11.6533 130.32 8.54667 126.973 6.36 122.68C4.17333 118.387 3.08 113.4 3.08 107.72C3.08 103.347 3.74667 99.3333 5.08 95.68C6.41333 92.0267 8.30667 88.8667 10.76 86.2C13.2133 83.5333 16.1067 81.48 19.44 80.04C22.8 78.5733 26.4933 77.84 30.52 77.84C33.0267 77.84 35.1067 78.0933 36.76 78.6C38.44 79.1067 39.76 79.6267 40.72 80.16C41.68 80.6667 42.3333 80.92 42.68 80.92C43.16 80.92 43.72 80.6667 44.36 80.16C45 79.6533 45.6133 79.16 46.2 78.68C46.8133 78.1733 47.2933 77.92 47.64 77.92C47.9067 77.92 48.12 78.0133 48.28 78.2C48.4667 78.3867 48.6133 78.6933 48.72 79.12L52.6 95C52.68 95.3733 52.6533 95.6933 52.52 95.96C52.3867 96.2267 52.1467 96.4 51.8 96.48C51.4533 96.56 51.1467 96.52 50.88 96.36C50.6133 96.2 50.3867 95.9067 50.2 95.48C48.7067 91.72 47.0533 88.7467 45.24 86.56C43.4533 84.3467 41.56 82.76 39.56 81.8C37.5867 80.84 35.56 80.36 33.48 80.36C31.32 80.36 29.3333 80.88 27.52 81.92C25.7067 82.9333 24.12 84.44 22.76 86.44C21.4 88.4133 20.3467 90.84 19.6 93.72C18.8533 96.5733 18.48 99.8533 18.48 103.56C18.48 109.453 19.24 114.36 20.76 118.28C22.28 122.173 24.3867 125.08 27.08 127C29.7733 128.92 32.8667 129.88 36.36 129.88C39.88 129.88 42.9333 128.867 45.52 126.84C48.1067 124.787 49.9067 121.8 50.92 117.88C51.0533 117.56 51.2 117.333 51.36 117.2C51.5467 117.067 51.7467 117.027 51.96 117.08C52.2 117.107 52.36 117.213 52.44 117.4C52.5467 117.56 52.6 117.787 52.6 118.08ZM74.3556 97.84C78.2223 97.84 81.6223 98.6533 84.5556 100.28C87.5156 101.88 89.8223 104.12 91.4756 107C93.1556 109.88 93.9956 113.213 93.9956 117C93.9956 120.653 93.129 123.907 91.3956 126.76C89.689 129.587 87.3156 131.813 84.2756 133.44C81.2623 135.067 77.7823 135.88 73.8356 135.88C69.969 135.88 66.5556 135.08 63.5956 133.48C60.6623 131.88 58.369 129.653 56.7156 126.8C55.0623 123.947 54.2356 120.653 54.2356 116.92C54.2356 113.24 55.089 109.973 56.7956 107.12C58.529 104.24 60.9023 101.973 63.9156 100.32C66.9556 98.6667 70.4356 97.84 74.3556 97.84ZM76.7156 133.88C78.049 133.693 79.1023 132.92 79.8756 131.56C80.6756 130.2 81.1423 128.227 81.2756 125.64C81.4356 123.027 81.2356 119.813 80.6756 116C80.1156 112.187 79.3823 109.053 78.4756 106.6C77.5956 104.147 76.569 102.36 75.3956 101.24C74.249 100.12 72.969 99.6667 71.5556 99.88C70.2223 100.067 69.1556 100.853 68.3556 102.24C67.5823 103.6 67.129 105.573 66.9956 108.16C66.889 110.747 67.1156 113.947 67.6756 117.76C68.2356 121.547 68.9556 124.667 69.8356 127.12C70.7423 129.573 71.769 131.36 72.9156 132.48C74.089 133.6 75.3556 134.067 76.7156 133.88ZM111.519 99.16V131.16C111.519 131.667 111.612 132.08 111.799 132.4C111.985 132.693 112.265 132.893 112.639 133L114.279 133.36C114.705 133.52 114.919 133.787 114.919 134.16C114.919 134.72 114.559 135 113.839 135H96.4388C96.0654 135 95.7854 134.933 95.5988 134.8C95.4388 134.64 95.3588 134.44 95.3588 134.2C95.3588 134.013 95.4254 133.853 95.5588 133.72C95.7188 133.56 95.9321 133.427 96.1988 133.32L97.8388 132.96C98.2388 132.853 98.5054 132.667 98.6388 132.4C98.7988 132.133 98.8788 131.76 98.8788 131.28V104.76C98.8788 104.387 98.8121 104.107 98.6788 103.92C98.5721 103.707 98.3721 103.587 98.0788 103.56L96.0788 103.52C95.8654 103.467 95.6921 103.373 95.5588 103.24C95.4521 103.107 95.3988 102.947 95.3988 102.76C95.3988 102.547 95.4654 102.373 95.5988 102.24C95.7321 102.08 95.9721 101.947 96.3188 101.84L108.119 98.32C108.625 98.1333 109.025 98.0133 109.319 97.96C109.639 97.88 109.945 97.84 110.239 97.84C110.692 97.84 111.012 97.9733 111.199 98.24C111.412 98.48 111.519 98.7867 111.519 99.16ZM110.439 107.88L109.479 106.92L110.919 105.56C113.959 102.733 116.692 100.747 119.119 99.6C121.572 98.4267 123.799 97.84 125.799 97.84C128.625 97.84 130.905 98.72 132.639 100.48C134.372 102.24 135.239 104.88 135.239 108.4V131.36C135.239 131.867 135.319 132.253 135.479 132.52C135.665 132.76 135.932 132.933 136.279 133.04L137.479 133.36C137.932 133.547 138.159 133.813 138.159 134.16C138.159 134.72 137.772 135 136.999 135H120.479C119.812 135 119.479 134.72 119.479 134.16C119.479 133.787 119.692 133.52 120.119 133.36L121.519 133.04C121.999 132.907 122.319 132.667 122.479 132.32C122.665 131.947 122.759 131.453 122.759 130.84V109.92C122.759 108.053 122.305 106.613 121.399 105.6C120.492 104.56 119.292 104.04 117.799 104.04C116.732 104.04 115.705 104.24 114.719 104.64C113.759 105.04 112.812 105.68 111.879 106.56L110.439 107.88ZM134.159 107.88L133.199 106.92L134.479 105.44C136.879 102.827 139.145 100.907 141.279 99.68C143.439 98.4533 145.585 97.84 147.719 97.84C150.439 97.84 152.652 98.7333 154.359 100.52C156.092 102.28 157.145 104.92 157.519 108.44L160.159 131.24C160.212 131.827 160.319 132.253 160.479 132.52C160.665 132.787 160.919 132.973 161.239 133.08L162.439 133.4C162.705 133.48 162.892 133.587 162.999 133.72C163.105 133.853 163.159 134.013 163.159 134.2C163.159 134.44 163.079 134.64 162.919 134.8C162.759 134.933 162.505 135 162.159 135H144.919C144.225 135 143.879 134.72 143.879 134.16C143.879 133.813 144.105 133.547 144.559 133.36L145.959 133.04C146.439 132.907 146.772 132.653 146.959 132.28C147.172 131.907 147.252 131.4 147.199 130.76L145.039 109.92C144.852 108.053 144.359 106.613 143.559 105.6C142.759 104.56 141.639 104.04 140.199 104.04C139.372 104.04 138.559 104.253 137.759 104.68C136.985 105.08 136.212 105.653 135.439 106.4L134.159 107.88ZM180.408 131.08C180.408 131.533 180.501 131.907 180.688 132.2C180.875 132.467 181.195 132.64 181.648 132.72L185.848 133.32C186.168 133.347 186.408 133.44 186.568 133.6C186.728 133.733 186.808 133.933 186.808 134.2C186.808 134.733 186.475 135 185.808 135H164.408C164.115 135 163.875 134.933 163.688 134.8C163.528 134.667 163.448 134.48 163.448 134.24C163.448 134.027 163.515 133.853 163.648 133.72C163.781 133.56 164.008 133.453 164.328 133.4L166.768 132.84C167.221 132.707 167.541 132.52 167.728 132.28C167.915 132.04 168.008 131.72 168.008 131.32V103.08C168.008 102.787 167.928 102.533 167.768 102.32C167.635 102.107 167.395 101.947 167.048 101.84L163.568 100.88C163.221 100.747 162.968 100.613 162.808 100.48C162.675 100.32 162.608 100.147 162.608 99.96C162.608 99.7467 162.688 99.5733 162.848 99.44C163.035 99.28 163.288 99.2 163.608 99.2H169.288L168.048 99.88V99.28C168.048 98.5867 167.848 97.8933 167.448 97.2C167.048 96.48 166.595 95.7333 166.088 94.96C165.581 94.16 165.128 93.2533 164.728 92.24C164.355 91.2 164.168 90.0267 164.168 88.72C164.168 85.2 165.288 82.44 167.528 80.44C169.768 78.44 172.875 77.44 176.848 77.44C179.381 77.44 181.488 77.8533 183.168 78.68C184.875 79.5067 186.141 80.6133 186.968 82C187.821 83.36 188.248 84.8667 188.248 86.52C188.248 88.4133 187.755 89.8267 186.768 90.76C185.808 91.6933 184.541 92.16 182.968 92.16C181.341 92.16 180.008 91.6267 178.968 90.56C177.928 89.4933 177.408 88.0667 177.408 86.28V82.08C177.408 81.0667 177.181 80.32 176.728 79.84C176.275 79.36 175.608 79.12 174.728 79.12C173.448 79.12 172.461 79.5467 171.768 80.4C171.075 81.2533 170.728 82.48 170.728 84.08C170.728 85.5733 171.035 86.9467 171.648 88.2C172.288 89.4267 173.061 90.5733 173.968 91.64C174.901 92.68 175.835 93.6533 176.768 94.56C177.701 95.4667 178.475 96.3467 179.088 97.2C179.728 98.0267 180.048 98.8533 180.048 99.68V100.56L179.168 99.2H186.448C186.795 99.2 187.048 99.2667 187.208 99.4C187.395 99.5067 187.488 99.68 187.488 99.92C187.488 100.32 187.288 100.653 186.888 100.92C186.488 101.16 185.875 101.28 185.048 101.28H180.408V131.08ZM208.043 97.84C211.91 97.84 215.31 98.6533 218.243 100.28C221.203 101.88 223.51 104.12 225.163 107C226.843 109.88 227.683 113.213 227.683 117C227.683 120.653 226.816 123.907 225.083 126.76C223.376 129.587 221.003 131.813 217.963 133.44C214.95 135.067 211.47 135.88 207.523 135.88C203.656 135.88 200.243 135.08 197.283 133.48C194.35 131.88 192.056 129.653 190.403 126.8C188.75 123.947 187.923 120.653 187.923 116.92C187.923 113.24 188.776 109.973 190.483 107.12C192.216 104.24 194.59 101.973 197.603 100.32C200.643 98.6667 204.123 97.84 208.043 97.84ZM210.403 133.88C211.736 133.693 212.79 132.92 213.563 131.56C214.363 130.2 214.83 128.227 214.963 125.64C215.123 123.027 214.923 119.813 214.363 116C213.803 112.187 213.07 109.053 212.163 106.6C211.283 104.147 210.256 102.36 209.083 101.24C207.936 100.12 206.656 99.6667 205.243 99.88C203.91 100.067 202.843 100.853 202.043 102.24C201.27 103.6 200.816 105.573 200.683 108.16C200.576 110.747 200.803 113.947 201.363 117.76C201.923 121.547 202.643 124.667 203.523 127.12C204.43 129.573 205.456 131.36 206.603 132.48C207.776 133.6 209.043 134.067 210.403 133.88ZM244.406 114C244.406 110.427 244.926 107.44 245.966 105.04C247.033 102.64 248.393 100.84 250.046 99.64C251.726 98.44 253.5 97.84 255.366 97.84C257.606 97.84 259.326 98.5467 260.526 99.96C261.753 101.347 262.366 103.413 262.366 106.16C262.366 108.747 261.78 110.667 260.606 111.92C259.46 113.173 257.993 113.8 256.206 113.8C254.526 113.8 253.273 113.347 252.446 112.44C251.646 111.507 251.22 110.187 251.166 108.48L251.086 107.04C251.086 106.32 250.94 105.76 250.646 105.36C250.353 104.96 249.873 104.76 249.206 104.76C248.486 104.76 247.833 105.093 247.246 105.76C246.66 106.4 246.18 107.413 245.806 108.8C245.433 110.187 245.246 111.947 245.246 114.08L244.406 114ZM245.006 99.36L245.246 110.96V130.88C245.246 131.36 245.353 131.76 245.566 132.08C245.78 132.373 246.14 132.56 246.646 132.64L250.366 133.32C250.686 133.373 250.913 133.48 251.046 133.64C251.18 133.773 251.246 133.96 251.246 134.2C251.246 134.44 251.153 134.64 250.966 134.8C250.78 134.933 250.513 135 250.166 135H230.166C229.82 135 229.553 134.933 229.366 134.8C229.18 134.64 229.086 134.44 229.086 134.2C229.086 134.013 229.153 133.84 229.286 133.68C229.446 133.52 229.673 133.4 229.966 133.32L231.566 132.96C231.966 132.853 232.233 132.667 232.366 132.4C232.526 132.133 232.606 131.76 232.606 131.28V104.56C232.606 104.187 232.54 103.907 232.406 103.72C232.3 103.533 232.1 103.427 231.806 103.4L229.806 103.32C229.593 103.267 229.42 103.187 229.286 103.08C229.18 102.947 229.126 102.787 229.126 102.6C229.126 102.387 229.193 102.2 229.326 102.04C229.486 101.88 229.726 101.747 230.046 101.64L241.806 98.6C242.446 98.36 242.913 98.2133 243.206 98.16C243.5 98.08 243.753 98.04 243.966 98.04C244.313 98.04 244.553 98.16 244.686 98.4C244.846 98.6133 244.953 98.9333 245.006 99.36ZM264.951 101.04L262.231 100.36C261.938 100.253 261.725 100.133 261.591 100C261.458 99.8667 261.391 99.7067 261.391 99.52C261.391 99.28 261.485 99.0933 261.671 98.96C261.858 98.8 262.071 98.72 262.311 98.72H265.391C265.631 98.72 265.858 98.6667 266.071 98.56C266.285 98.4533 266.511 98.2533 266.751 97.96L275.191 90.52C275.538 90.1733 275.871 89.92 276.191 89.76C276.511 89.5733 276.818 89.48 277.111 89.48C277.431 89.48 277.685 89.5867 277.871 89.8C278.058 90.0133 278.151 90.3333 278.151 90.76V123.8C278.151 125.987 278.551 127.613 279.351 128.68C280.151 129.747 281.245 130.28 282.631 130.28C283.271 130.28 283.831 130.16 284.311 129.92C284.791 129.68 285.218 129.36 285.591 128.96C285.965 128.533 286.298 128.053 286.591 127.52C286.911 126.96 287.218 126.373 287.511 125.76C287.698 125.627 287.871 125.613 288.031 125.72C288.218 125.8 288.298 126.027 288.271 126.4C287.978 128.373 287.365 130.067 286.431 131.48C285.525 132.893 284.298 133.973 282.751 134.72C281.205 135.44 279.338 135.8 277.151 135.8C273.525 135.8 270.725 134.947 268.751 133.24C266.805 131.533 265.831 128.907 265.831 125.36V102.32C265.831 101.92 265.765 101.64 265.631 101.48C265.525 101.293 265.298 101.147 264.951 101.04ZM274.151 100.8L274.431 98.72H287.311C287.631 98.72 287.871 98.7867 288.031 98.92C288.191 99.0267 288.271 99.2 288.271 99.44C288.271 99.8133 288.071 100.133 287.671 100.4C287.298 100.667 286.711 100.8 285.911 100.8H274.151ZM310.52 130.8V130.24L309.84 130.6V103.88C309.84 102.44 309.493 101.32 308.8 100.52C308.133 99.72 307.213 99.32 306.04 99.32C304.787 99.32 303.813 99.64 303.12 100.28C302.453 100.92 302.12 101.707 302.12 102.64V106.44C302.12 108.12 301.52 109.52 300.32 110.64C299.147 111.733 297.56 112.28 295.56 112.28C294.067 112.28 292.88 111.893 292 111.12C291.12 110.32 290.68 109.16 290.68 107.64C290.68 106.12 291.32 104.613 292.6 103.12C293.907 101.6 295.827 100.347 298.36 99.36C300.92 98.3467 304.08 97.84 307.84 97.84C312.747 97.84 316.4 98.8133 318.8 100.76C321.227 102.68 322.44 105.413 322.44 108.96V129.12C322.44 129.867 322.587 130.427 322.88 130.8C323.2 131.147 323.6 131.32 324.08 131.32C324.533 131.32 324.933 131.173 325.28 130.88C325.627 130.587 325.867 130.133 326 129.52C326.08 129.387 326.16 129.293 326.24 129.24C326.32 129.16 326.413 129.12 326.52 129.12C326.68 129.12 326.8 129.187 326.88 129.32C326.96 129.427 327 129.587 327 129.8C327 130.493 326.693 131.32 326.08 132.28C325.493 133.213 324.547 134.04 323.24 134.76C321.933 135.48 320.2 135.84 318.04 135.84C315.533 135.84 313.653 135.373 312.4 134.44C311.147 133.48 310.52 132.267 310.52 130.8ZM288.72 126.96C288.72 123.76 290.08 121.227 292.8 119.36C295.52 117.467 299.76 116.52 305.52 116.52C306.987 116.52 308.213 116.667 309.2 116.96C310.213 117.227 311.107 117.587 311.88 118.04L311.32 119.16C310.547 118.76 309.787 118.467 309.04 118.28C308.293 118.093 307.467 118 306.56 118C304.907 118 303.613 118.6 302.68 119.8C301.773 121 301.32 122.747 301.32 125.04C301.32 127.253 301.76 128.907 302.64 130C303.547 131.093 304.707 131.64 306.12 131.64C307.053 131.64 307.96 131.4 308.84 130.92C309.747 130.413 310.493 129.747 311.08 128.92L311.68 129.96C310.507 131.853 308.827 133.307 306.64 134.32C304.48 135.333 302.147 135.84 299.64 135.84C296.44 135.84 293.813 135.013 291.76 133.36C289.733 131.68 288.72 129.547 288.72 126.96ZM342.343 76.36V132.24L333.143 135.16C332.53 135.373 332.05 135.52 331.703 135.6C331.383 135.68 331.09 135.72 330.823 135.72C330.503 135.72 330.236 135.627 330.023 135.44C329.81 135.253 329.703 135 329.703 134.68V81.92C329.703 81.5733 329.636 81.32 329.503 81.16C329.396 80.9733 329.196 80.8667 328.903 80.84L326.983 80.76C326.716 80.7333 326.53 80.6533 326.423 80.52C326.316 80.3867 326.263 80.2267 326.263 80.04C326.263 79.8 326.33 79.6133 326.463 79.48C326.596 79.3467 326.823 79.2267 327.143 79.12L338.943 75.6C339.503 75.4133 339.93 75.28 340.223 75.2C340.516 75.12 340.796 75.08 341.063 75.08C341.49 75.08 341.81 75.2 342.023 75.44C342.236 75.68 342.343 75.9867 342.343 76.36ZM341.023 106.76L339.943 105.56C341.81 102.973 343.783 101.04 345.863 99.76C347.97 98.48 350.343 97.84 352.983 97.84C356.023 97.84 358.703 98.5733 361.023 100.04C363.343 101.48 365.156 103.533 366.463 106.2C367.77 108.867 368.423 112.04 368.423 115.72C368.423 119.773 367.65 123.32 366.103 126.36C364.583 129.373 362.476 131.72 359.783 133.4C357.09 135.053 354.023 135.88 350.583 135.88C347.836 135.88 345.556 135.36 343.743 134.32C341.956 133.28 340.49 131.733 339.343 129.68L341.023 128.6C341.796 130.12 342.73 131.267 343.823 132.04C344.916 132.787 346.183 133.16 347.623 133.16C349.143 133.16 350.49 132.653 351.663 131.64C352.863 130.627 353.796 128.933 354.463 126.56C355.156 124.16 355.503 120.933 355.503 116.88C355.503 113.227 355.196 110.28 354.583 108.04C353.996 105.8 353.17 104.16 352.103 103.12C351.063 102.08 349.85 101.56 348.463 101.56C347.13 101.56 345.823 101.987 344.543 102.84C343.29 103.667 342.116 104.973 341.023 106.76ZM386.314 76.36V131.12C386.314 131.68 386.394 132.107 386.554 132.4C386.741 132.667 387.021 132.853 387.394 132.96L389.034 133.36C389.328 133.44 389.528 133.56 389.634 133.72C389.768 133.853 389.834 134.013 389.834 134.2C389.834 134.44 389.741 134.64 389.554 134.8C389.394 134.933 389.141 135 388.794 135H371.194C370.848 135 370.581 134.933 370.394 134.8C370.234 134.64 370.154 134.44 370.154 134.2C370.154 134.013 370.221 133.853 370.354 133.72C370.488 133.56 370.701 133.427 370.994 133.32L372.634 132.96C373.034 132.853 373.301 132.667 373.434 132.4C373.594 132.107 373.674 131.68 373.674 131.12V81.92C373.674 81.5733 373.608 81.32 373.474 81.16C373.368 80.9733 373.168 80.8667 372.874 80.84L370.954 80.76C370.688 80.7333 370.501 80.6533 370.394 80.52C370.288 80.3867 370.234 80.2267 370.234 80.04C370.234 79.8 370.301 79.6133 370.434 79.48C370.568 79.3467 370.794 79.2267 371.114 79.12L382.914 75.6C383.474 75.4133 383.901 75.28 384.194 75.2C384.488 75.12 384.768 75.08 385.034 75.08C385.461 75.08 385.781 75.2 385.994 75.44C386.208 75.68 386.314 75.9867 386.314 76.36ZM426.285 113.64C426.285 114.307 426.085 114.827 425.685 115.2C425.312 115.573 424.738 115.76 423.965 115.76H399.245V114.12H412.605C413.352 114.12 413.725 113.733 413.725 112.96C413.725 108.4 413.178 105.067 412.085 102.96C410.992 100.853 409.685 99.8 408.165 99.8C407.018 99.8 405.992 100.24 405.085 101.12C404.178 102 403.458 103.387 402.925 105.28C402.418 107.173 402.165 109.627 402.165 112.64C402.165 118 403.298 121.96 405.565 124.52C407.858 127.08 410.885 128.36 414.645 128.36C417.258 128.36 419.458 127.733 421.245 126.48C423.058 125.227 424.178 123.48 424.605 121.24C424.792 120.973 424.952 120.8 425.085 120.72C425.245 120.64 425.378 120.6 425.485 120.6C425.672 120.6 425.818 120.68 425.925 120.84C426.058 121 426.112 121.24 426.085 121.56C426.032 124.227 425.258 126.653 423.765 128.84C422.298 131 420.298 132.72 417.765 134C415.232 135.253 412.365 135.88 409.165 135.88C405.538 135.88 402.325 135.12 399.525 133.6C396.752 132.053 394.565 129.907 392.965 127.16C391.392 124.387 390.605 121.187 390.605 117.56C390.605 113.56 391.378 110.093 392.925 107.16C394.472 104.2 396.685 101.907 399.565 100.28C402.445 98.6267 405.845 97.8 409.765 97.8C413.205 97.8 416.152 98.4933 418.605 99.88C421.058 101.24 422.952 103.12 424.285 105.52C425.618 107.893 426.285 110.6 426.285 113.64ZM52.6 192.08C52.44 194.507 51.7867 196.827 50.64 199.04C49.4933 201.227 47.9333 203.173 45.96 204.88C43.9867 206.56 41.6533 207.893 38.96 208.88C36.2933 209.84 33.3467 210.32 30.12 210.32C24.5467 210.32 19.7333 209.12 15.68 206.72C11.6533 204.32 8.54667 200.973 6.36 196.68C4.17333 192.387 3.08 187.4 3.08 181.72C3.08 177.347 3.74667 173.333 5.08 169.68C6.41333 166.027 8.30667 162.867 10.76 160.2C13.2133 157.533 16.1067 155.48 19.44 154.04C22.8 152.573 26.4933 151.84 30.52 151.84C33.0267 151.84 35.1067 152.093 36.76 152.6C38.44 153.107 39.76 153.627 40.72 154.16C41.68 154.667 42.3333 154.92 42.68 154.92C43.16 154.92 43.72 154.667 44.36 154.16C45 153.653 45.6133 153.16 46.2 152.68C46.8133 152.173 47.2933 151.92 47.64 151.92C47.9067 151.92 48.12 152.013 48.28 152.2C48.4667 152.387 48.6133 152.693 48.72 153.12L52.6 169C52.68 169.373 52.6533 169.693 52.52 169.96C52.3867 170.227 52.1467 170.4 51.8 170.48C51.4533 170.56 51.1467 170.52 50.88 170.36C50.6133 170.2 50.3867 169.907 50.2 169.48C48.7067 165.72 47.0533 162.747 45.24 160.56C43.4533 158.347 41.56 156.76 39.56 155.8C37.5867 154.84 35.56 154.36 33.48 154.36C31.32 154.36 29.3333 154.88 27.52 155.92C25.7067 156.933 24.12 158.44 22.76 160.44C21.4 162.413 20.3467 164.84 19.6 167.72C18.8533 170.573 18.48 173.853 18.48 177.56C18.48 183.453 19.24 188.36 20.76 192.28C22.28 196.173 24.3867 199.08 27.08 201C29.7733 202.92 32.8667 203.88 36.36 203.88C39.88 203.88 42.9333 202.867 45.52 200.84C48.1067 198.787 49.9067 195.8 50.92 191.88C51.0533 191.56 51.2 191.333 51.36 191.2C51.5467 191.067 51.7467 191.027 51.96 191.08C52.2 191.107 52.36 191.213 52.44 191.4C52.5467 191.56 52.6 191.787 52.6 192.08ZM74.3556 171.84C78.2223 171.84 81.6223 172.653 84.5556 174.28C87.5156 175.88 89.8223 178.12 91.4756 181C93.1556 183.88 93.9956 187.213 93.9956 191C93.9956 194.653 93.129 197.907 91.3956 200.76C89.689 203.587 87.3156 205.813 84.2756 207.44C81.2623 209.067 77.7823 209.88 73.8356 209.88C69.969 209.88 66.5556 209.08 63.5956 207.48C60.6623 205.88 58.369 203.653 56.7156 200.8C55.0623 197.947 54.2356 194.653 54.2356 190.92C54.2356 187.24 55.089 183.973 56.7956 181.12C58.529 178.24 60.9023 175.973 63.9156 174.32C66.9556 172.667 70.4356 171.84 74.3556 171.84ZM76.7156 207.88C78.049 207.693 79.1023 206.92 79.8756 205.56C80.6756 204.2 81.1423 202.227 81.2756 199.64C81.4356 197.027 81.2356 193.813 80.6756 190C80.1156 186.187 79.3823 183.053 78.4756 180.6C77.5956 178.147 76.569 176.36 75.3956 175.24C74.249 174.12 72.969 173.667 71.5556 173.88C70.2223 174.067 69.1556 174.853 68.3556 176.24C67.5823 177.6 67.129 179.573 66.9956 182.16C66.889 184.747 67.1156 187.947 67.6756 191.76C68.2356 195.547 68.9556 198.667 69.8356 201.12C70.7423 203.573 71.769 205.36 72.9156 206.48C74.089 207.6 75.3556 208.067 76.7156 207.88ZM114.479 184.4C115.252 184.4 115.505 184.8 115.239 185.6L114.559 190.36C114.425 190.787 114.252 191.067 114.039 191.2C113.852 191.333 113.585 191.4 113.239 191.4H96.4788C95.7054 191.4 95.4521 190.987 95.7188 190.16L96.3988 185.4C96.5321 185 96.6921 184.733 96.8788 184.6C97.0921 184.467 97.3721 184.4 97.7188 184.4H114.479ZM136.274 209.04H131.274C130.821 209.04 130.434 208.947 130.114 208.76C129.794 208.547 129.554 208.2 129.394 207.72L118.674 176.36C118.488 175.8 118.274 175.4 118.034 175.16C117.821 174.92 117.528 174.76 117.154 174.68L115.754 174.36C115.488 174.253 115.301 174.133 115.194 174C115.088 173.867 115.034 173.707 115.034 173.52C115.034 173.253 115.114 173.053 115.274 172.92C115.461 172.787 115.714 172.72 116.034 172.72H135.154C135.474 172.72 135.714 172.787 135.874 172.92C136.061 173.053 136.154 173.253 136.154 173.52C136.154 173.707 136.088 173.867 135.954 174C135.821 174.133 135.608 174.24 135.314 174.32L133.514 174.68C132.821 174.813 132.394 175.107 132.234 175.56C132.074 176.013 132.154 176.72 132.474 177.68L139.674 199.68L136.874 205.24L145.714 177.96L147.514 178.96L138.074 207.84C137.914 208.293 137.661 208.613 137.314 208.8C136.994 208.96 136.648 209.04 136.274 209.04ZM160.554 209.04H155.594C155.168 209.04 154.781 208.947 154.434 208.76C154.114 208.547 153.874 208.187 153.714 207.68L143.314 176.4C143.101 175.76 142.874 175.32 142.634 175.08C142.421 174.84 142.181 174.693 141.914 174.64L140.834 174.36C140.568 174.253 140.368 174.147 140.234 174.04C140.128 173.907 140.074 173.733 140.074 173.52C140.074 172.987 140.421 172.72 141.114 172.72H159.994C160.661 172.72 160.994 172.987 160.994 173.52C160.994 173.733 160.928 173.907 160.794 174.04C160.688 174.173 160.488 174.267 160.194 174.32L158.114 174.76C157.288 174.92 156.794 175.2 156.634 175.6C156.474 176 156.541 176.653 156.834 177.56L163.914 199.8L161.074 205.4L169.154 179.28C169.608 177.867 169.701 176.8 169.434 176.08C169.168 175.333 168.568 174.867 167.634 174.68L166.034 174.32C165.741 174.24 165.528 174.147 165.394 174.04C165.261 173.907 165.194 173.733 165.194 173.52C165.194 173.253 165.288 173.053 165.474 172.92C165.661 172.787 165.901 172.72 166.194 172.72H175.314C175.661 172.72 175.914 172.787 176.074 172.92C176.261 173.053 176.354 173.253 176.354 173.52C176.354 173.707 176.301 173.867 176.194 174C176.088 174.133 175.874 174.253 175.554 174.36L174.594 174.68C173.954 174.893 173.368 175.373 172.834 176.12C172.301 176.867 171.821 177.893 171.394 179.2L162.354 207.84C162.221 208.293 161.981 208.613 161.634 208.8C161.288 208.96 160.928 209.04 160.554 209.04ZM194.449 171.84C198.316 171.84 201.716 172.653 204.649 174.28C207.609 175.88 209.916 178.12 211.569 181C213.249 183.88 214.089 187.213 214.089 191C214.089 194.653 213.223 197.907 211.489 200.76C209.783 203.587 207.409 205.813 204.369 207.44C201.356 209.067 197.876 209.88 193.929 209.88C190.063 209.88 186.649 209.08 183.689 207.48C180.756 205.88 178.463 203.653 176.809 200.8C175.156 197.947 174.329 194.653 174.329 190.92C174.329 187.24 175.183 183.973 176.889 181.12C178.623 178.24 180.996 175.973 184.009 174.32C187.049 172.667 190.529 171.84 194.449 171.84ZM196.809 207.88C198.143 207.693 199.196 206.92 199.969 205.56C200.769 204.2 201.236 202.227 201.369 199.64C201.529 197.027 201.329 193.813 200.769 190C200.209 186.187 199.476 183.053 198.569 180.6C197.689 178.147 196.663 176.36 195.489 175.24C194.343 174.12 193.063 173.667 191.649 173.88C190.316 174.067 189.249 174.853 188.449 176.24C187.676 177.6 187.223 179.573 187.089 182.16C186.983 184.747 187.209 187.947 187.769 191.76C188.329 195.547 189.049 198.667 189.929 201.12C190.836 203.573 191.863 205.36 193.009 206.48C194.183 207.6 195.449 208.067 196.809 207.88ZM230.813 188C230.813 184.427 231.333 181.44 232.373 179.04C233.439 176.64 234.799 174.84 236.453 173.64C238.133 172.44 239.906 171.84 241.773 171.84C244.013 171.84 245.733 172.547 246.933 173.96C248.159 175.347 248.773 177.413 248.773 180.16C248.773 182.747 248.186 184.667 247.013 185.92C245.866 187.173 244.399 187.8 242.613 187.8C240.933 187.8 239.679 187.347 238.853 186.44C238.053 185.507 237.626 184.187 237.573 182.48L237.493 181.04C237.493 180.32 237.346 179.76 237.053 179.36C236.759 178.96 236.279 178.76 235.613 178.76C234.893 178.76 234.239 179.093 233.653 179.76C233.066 180.4 232.586 181.413 232.213 182.8C231.839 184.187 231.653 185.947 231.653 188.08L230.813 188ZM231.413 173.36L231.653 184.96V204.88C231.653 205.36 231.759 205.76 231.973 206.08C232.186 206.373 232.546 206.56 233.053 206.64L236.773 207.32C237.093 207.373 237.319 207.48 237.453 207.64C237.586 207.773 237.653 207.96 237.653 208.2C237.653 208.44 237.559 208.64 237.373 208.8C237.186 208.933 236.919 209 236.573 209H216.573C216.226 209 215.959 208.933 215.773 208.8C215.586 208.64 215.493 208.44 215.493 208.2C215.493 208.013 215.559 207.84 215.693 207.68C215.853 207.52 216.079 207.4 216.373 207.32L217.973 206.96C218.373 206.853 218.639 206.667 218.773 206.4C218.933 206.133 219.013 205.76 219.013 205.28V178.56C219.013 178.187 218.946 177.907 218.812 177.72C218.706 177.533 218.506 177.427 218.213 177.4L216.213 177.32C215.999 177.267 215.826 177.187 215.693 177.08C215.586 176.947 215.533 176.787 215.533 176.6C215.533 176.387 215.599 176.2 215.733 176.04C215.893 175.88 216.133 175.747 216.452 175.64L228.213 172.6C228.853 172.36 229.319 172.213 229.613 172.16C229.906 172.08 230.159 172.04 230.373 172.04C230.719 172.04 230.959 172.16 231.093 172.4C231.253 172.613 231.359 172.933 231.413 173.36ZM250.077 209C249.758 209 249.504 208.933 249.318 208.8C249.158 208.64 249.078 208.44 249.078 208.2C249.078 208.013 249.144 207.853 249.278 207.72C249.411 207.56 249.624 207.427 249.918 207.32L251.558 206.96C251.958 206.853 252.224 206.667 252.358 206.4C252.518 206.107 252.598 205.68 252.598 205.12V155.92C252.598 155.573 252.531 155.32 252.398 155.16C252.291 154.973 252.091 154.867 251.798 154.84L249.878 154.76C249.611 154.733 249.424 154.653 249.318 154.52C249.211 154.387 249.158 154.227 249.158 154.04C249.158 153.8 249.224 153.613 249.358 153.48C249.491 153.347 249.718 153.227 250.038 153.12L261.838 149.6C262.371 149.413 262.784 149.28 263.078 149.2C263.371 149.12 263.664 149.08 263.958 149.08C264.384 149.08 264.704 149.2 264.918 149.44C265.131 149.68 265.238 149.987 265.238 150.36V205.12C265.238 205.68 265.318 206.107 265.478 206.4C265.664 206.667 265.931 206.853 266.278 206.96L267.918 207.36C268.398 207.52 268.638 207.787 268.638 208.16C268.638 208.72 268.291 209 267.598 209H250.077ZM262.758 194.36L277.998 179.96C279.198 178.84 279.638 177.773 279.318 176.76C279.024 175.72 278.131 175.013 276.638 174.64L275.198 174.32C274.931 174.213 274.744 174.107 274.638 174C274.531 173.867 274.478 173.707 274.478 173.52C274.478 173.253 274.571 173.053 274.758 172.92C274.944 172.787 275.184 172.72 275.478 172.72H291.038C291.384 172.72 291.638 172.787 291.798 172.92C291.984 173.053 292.078 173.24 292.078 173.48C292.078 173.72 291.998 173.92 291.838 174.08C291.678 174.24 291.358 174.373 290.878 174.48C288.904 174.933 287.064 175.64 285.358 176.6C283.678 177.533 281.984 178.8 280.278 180.4L263.638 195.92L262.758 194.36ZM276.358 182.44L290.118 205.2C290.491 205.813 290.851 206.253 291.198 206.52C291.571 206.787 292.038 207.04 292.598 207.28C292.918 207.44 293.144 207.6 293.278 207.76C293.411 207.92 293.478 208.093 293.478 208.28C293.478 208.493 293.384 208.667 293.198 208.8C293.038 208.933 292.798 209 292.478 209H273.518C273.251 209 273.024 208.933 272.838 208.8C272.678 208.64 272.598 208.44 272.598 208.2C272.598 208.04 272.638 207.893 272.718 207.76C272.824 207.627 273.011 207.52 273.278 207.44L274.718 207.12C275.331 206.96 275.691 206.72 275.798 206.4C275.931 206.053 275.811 205.573 275.438 204.96L267.558 191.12L276.358 182.44ZM308.786 173.12V205.12C308.786 205.68 308.866 206.107 309.026 206.4C309.186 206.667 309.453 206.853 309.826 206.96L311.466 207.36C311.76 207.44 311.96 207.56 312.066 207.72C312.2 207.853 312.266 208.013 312.266 208.2C312.266 208.44 312.186 208.64 312.026 208.8C311.866 208.933 311.6 209 311.226 209H293.626C293.306 209 293.053 208.933 292.866 208.8C292.706 208.64 292.626 208.44 292.626 208.2C292.626 208.013 292.68 207.853 292.786 207.72C292.893 207.56 293.093 207.44 293.386 207.36L295.106 206.96C295.48 206.853 295.746 206.667 295.906 206.4C296.066 206.107 296.146 205.68 296.146 205.12V178.64C296.146 178.293 296.08 178.04 295.946 177.88C295.813 177.693 295.6 177.587 295.306 177.56L293.426 177.52C293.16 177.467 292.96 177.373 292.826 177.24C292.72 177.107 292.666 176.947 292.666 176.76C292.666 176.52 292.733 176.333 292.866 176.2C293.026 176.067 293.266 175.947 293.586 175.84L305.346 172.32C305.933 172.133 306.36 172.013 306.626 171.96C306.92 171.88 307.2 171.84 307.466 171.84C307.893 171.84 308.213 171.96 308.426 172.2C308.666 172.44 308.786 172.747 308.786 173.12ZM302.066 167.8C299.853 167.8 298.066 167.16 296.706 165.88C295.373 164.573 294.706 162.92 294.706 160.92C294.706 158.947 295.386 157.32 296.746 156.04C298.106 154.733 299.88 154.08 302.066 154.08C304.28 154.08 306.08 154.733 307.466 156.04C308.853 157.347 309.546 158.973 309.546 160.92C309.546 162.92 308.853 164.573 307.466 165.88C306.08 167.16 304.28 167.8 302.066 167.8ZM329.128 173.12V205.12C329.128 205.68 329.208 206.107 329.368 206.4C329.555 206.667 329.821 206.853 330.168 206.96L331.808 207.36C332.288 207.52 332.528 207.787 332.528 208.16C332.528 208.72 332.181 209 331.488 209H314.008C313.661 209 313.395 208.933 313.208 208.8C313.048 208.64 312.968 208.44 312.968 208.2C312.968 208.013 313.021 207.853 313.128 207.72C313.261 207.56 313.475 207.44 313.768 207.36L315.448 206.96C315.848 206.853 316.115 206.667 316.248 206.4C316.408 206.107 316.488 205.68 316.488 205.12V178.64C316.488 178.293 316.421 178.04 316.288 177.88C316.181 177.693 315.981 177.587 315.688 177.56L313.768 177.52C313.501 177.467 313.315 177.373 313.208 177.24C313.101 177.107 313.048 176.947 313.048 176.76C313.048 176.52 313.115 176.333 313.248 176.2C313.381 176.067 313.608 175.947 313.928 175.84L325.728 172.32C326.261 172.133 326.675 172.013 326.968 171.96C327.261 171.88 327.555 171.84 327.848 171.84C328.275 171.84 328.595 171.96 328.808 172.2C329.021 172.44 329.128 172.747 329.128 173.12ZM328.048 181.84L327.088 180.84L328.568 179.52C331.528 176.853 334.115 174.907 336.328 173.68C338.541 172.453 340.581 171.84 342.448 171.84C345.141 171.84 347.235 172.68 348.728 174.36C350.221 176.04 351.155 178.533 351.528 181.84L354.128 205.04C354.208 205.627 354.315 206.08 354.448 206.4C354.608 206.693 354.888 206.893 355.288 207L356.848 207.36C357.141 207.44 357.341 207.56 357.448 207.72C357.555 207.853 357.608 208.013 357.608 208.2C357.608 208.44 357.528 208.64 357.368 208.8C357.208 208.933 356.955 209 356.608 209H338.848C338.128 209 337.768 208.72 337.768 208.16C337.768 207.813 338.008 207.547 338.488 207.36L340.168 206.96C340.568 206.853 340.861 206.653 341.048 206.36C341.261 206.04 341.328 205.6 341.248 205.04L339.048 183.32C338.861 181.507 338.435 180.173 337.768 179.32C337.128 178.467 336.141 178.04 334.808 178.04C333.955 178.04 333.088 178.253 332.208 178.68C331.328 179.107 330.435 179.733 329.528 180.56L328.048 181.84ZM382.02 205.64C385.967 206.2 389.06 206.907 391.3 207.76C393.567 208.613 395.167 209.72 396.1 211.08C397.033 212.44 397.5 214.12 397.5 216.12C397.5 219.8 395.687 222.8 392.06 225.12C388.433 227.467 383.247 228.64 376.5 228.64C371.673 228.64 367.807 228.28 364.9 227.56C361.993 226.84 359.887 225.84 358.58 224.56C357.3 223.28 356.66 221.8 356.66 220.12C356.66 217.987 357.553 216.267 359.34 214.96C361.153 213.653 364.233 212.747 368.58 212.24L368.74 212.92C367.753 213.187 366.98 213.667 366.42 214.36C365.887 215.08 365.62 215.88 365.62 216.76C365.62 219.747 366.58 222.133 368.5 223.92C370.42 225.733 373.42 226.64 377.5 226.64C379.74 226.64 381.567 226.44 382.98 226.04C384.393 225.64 385.433 225.027 386.1 224.2C386.793 223.373 387.14 222.32 387.14 221.04C387.14 220 386.793 219.093 386.1 218.32C385.433 217.573 384.247 216.92 382.54 216.36C380.86 215.8 378.487 215.267 375.42 214.76C371.927 214.2 369.18 213.587 367.18 212.92C365.207 212.28 363.807 211.493 362.98 210.56C362.153 209.653 361.74 208.48 361.74 207.04C361.74 205.733 362.1 204.56 362.82 203.52C363.54 202.453 364.727 201.56 366.38 200.84C368.06 200.12 370.313 199.627 373.14 199.36L373.38 199.76C372.873 199.92 372.447 200.173 372.1 200.52C371.78 200.867 371.62 201.293 371.62 201.8C371.62 202.28 371.847 202.72 372.3 203.12C372.78 203.52 373.753 203.92 375.22 204.32C376.713 204.72 378.98 205.16 382.02 205.64ZM382.5 174.44L383.14 172.92C384.26 170.147 385.66 167.973 387.34 166.4C389.02 164.827 391.007 164.04 393.3 164.04C395.247 164.04 396.753 164.587 397.82 165.68C398.913 166.773 399.46 168.213 399.46 170C399.46 171.573 399.06 172.813 398.26 173.72C397.46 174.627 396.353 175.08 394.94 175.08C394.007 175.08 393.247 174.84 392.66 174.36C392.073 173.88 391.553 173.32 391.1 172.68C390.647 172.04 390.167 171.48 389.66 171C389.18 170.52 388.567 170.28 387.82 170.28C386.993 170.28 386.287 170.613 385.7 171.28C385.113 171.92 384.527 172.947 383.94 174.36L382.5 174.44ZM394.82 185.64C394.82 188.44 394.033 190.947 392.46 193.16C390.887 195.347 388.713 197.08 385.94 198.36C383.167 199.613 379.98 200.24 376.38 200.24C372.567 200.24 369.273 199.64 366.5 198.44C363.753 197.213 361.633 195.573 360.14 193.52C358.673 191.467 357.94 189.213 357.94 186.76C357.94 183.88 358.713 181.333 360.26 179.12C361.807 176.88 364.007 175.12 366.86 173.84C369.713 172.533 373.1 171.88 377.02 171.88C380.78 171.88 383.98 172.52 386.62 173.8C389.287 175.053 391.313 176.72 392.7 178.8C394.113 180.88 394.82 183.16 394.82 185.64ZM374.58 173.76C373.54 173.84 372.673 174.387 371.98 175.4C371.313 176.413 370.86 177.84 370.62 179.68C370.407 181.493 370.46 183.68 370.78 186.24C371.127 188.853 371.647 191.08 372.34 192.92C373.033 194.733 373.86 196.093 374.82 197C375.78 197.907 376.807 198.32 377.9 198.24C379.473 198.08 380.62 196.92 381.34 194.76C382.06 192.6 382.18 189.587 381.7 185.72C381.193 181.747 380.3 178.72 379.02 176.64C377.74 174.56 376.26 173.6 374.58 173.76ZM426.337 207.88C427.99 207.88 429.27 207.48 430.177 206.68C431.11 205.853 431.577 204.787 431.577 203.48C431.577 202.573 431.364 201.747 430.937 201C430.537 200.253 429.804 199.56 428.737 198.92C427.67 198.28 426.164 197.68 424.217 197.12C420.51 196.08 417.63 194.907 415.577 193.6C413.55 192.267 412.124 190.76 411.297 189.08C410.497 187.4 410.097 185.507 410.097 183.4C410.097 179.72 411.35 176.867 413.857 174.84C416.39 172.813 419.884 171.8 424.337 171.8C426.07 171.8 427.484 171.96 428.577 172.28C429.67 172.573 430.524 172.88 431.137 173.2C431.75 173.493 432.204 173.64 432.497 173.64C432.897 173.64 433.417 173.493 434.057 173.2C434.724 172.88 435.377 172.573 436.017 172.28C436.657 171.96 437.164 171.8 437.537 171.8C437.75 171.8 437.95 171.867 438.137 172C438.35 172.133 438.51 172.4 438.617 172.8L440.657 183.6C440.79 184.107 440.817 184.52 440.737 184.84C440.684 185.133 440.524 185.347 440.257 185.48C439.964 185.56 439.71 185.56 439.497 185.48C439.284 185.373 439.084 185.173 438.897 184.88C437.27 182.08 435.71 179.867 434.217 178.24C432.75 176.587 431.257 175.413 429.737 174.72C428.244 174.027 426.644 173.68 424.937 173.68C423.097 173.68 421.697 174.12 420.737 175C419.804 175.853 419.337 177 419.337 178.44C419.337 179.4 419.564 180.28 420.017 181.08C420.497 181.88 421.364 182.613 422.617 183.28C423.897 183.947 425.724 184.587 428.097 185.2C431.27 186 433.79 187.027 435.657 188.28C437.524 189.533 438.857 190.987 439.657 192.64C440.484 194.293 440.897 196.147 440.897 198.2C440.897 200.573 440.297 202.64 439.097 204.4C437.897 206.133 436.27 207.48 434.217 208.44C432.19 209.4 429.91 209.88 427.377 209.88C425.777 209.88 424.43 209.68 423.337 209.28C422.27 208.907 421.404 208.533 420.737 208.16C420.07 207.787 419.577 207.6 419.257 207.6C418.937 207.6 418.457 207.773 417.817 208.12C417.204 208.467 416.577 208.813 415.937 209.16C415.297 209.533 414.804 209.72 414.457 209.72C414.19 209.72 413.95 209.613 413.737 209.4C413.55 209.187 413.417 208.84 413.337 208.36L411.817 199.04C411.737 198.453 411.724 198.027 411.777 197.76C411.857 197.467 412.03 197.253 412.297 197.12C412.564 197.013 412.804 197.027 413.017 197.16C413.23 197.293 413.444 197.52 413.657 197.84C415.844 201.467 417.977 204.053 420.057 205.6C422.164 207.12 424.257 207.88 426.337 207.88ZM458.577 173V177.6L458.737 178.2V223.8C458.737 224.36 458.817 224.773 458.977 225.04C459.164 225.333 459.444 225.533 459.817 225.64L461.657 226C461.95 226.08 462.15 226.187 462.257 226.32C462.39 226.48 462.457 226.667 462.457 226.88C462.457 227.12 462.377 227.307 462.217 227.44C462.057 227.6 461.79 227.68 461.417 227.68H443.737C443.39 227.68 443.124 227.6 442.937 227.44C442.777 227.307 442.697 227.12 442.697 226.88C442.697 226.667 442.764 226.48 442.897 226.32C443.03 226.187 443.244 226.08 443.537 226L445.057 225.64C445.457 225.533 445.737 225.333 445.897 225.04C446.057 224.773 446.137 224.36 446.137 223.8V178.56C446.137 178.213 446.07 177.96 445.937 177.8C445.804 177.613 445.59 177.507 445.297 177.48L443.377 177.44C443.11 177.387 442.924 177.293 442.817 177.16C442.71 177.027 442.657 176.867 442.657 176.68C442.657 176.44 442.724 176.267 442.857 176.16C443.017 176.027 443.244 175.893 443.537 175.76L455.137 172.24C455.67 172.053 456.084 171.933 456.377 171.88C456.697 171.8 456.99 171.76 457.257 171.76C457.684 171.76 458.004 171.88 458.217 172.12C458.457 172.36 458.577 172.653 458.577 173ZM457.417 180.84L456.377 179.64C458.19 177.08 460.15 175.133 462.257 173.8C464.364 172.467 466.79 171.8 469.537 171.8C472.55 171.8 475.217 172.533 477.537 174C479.857 175.467 481.657 177.533 482.937 180.2C484.244 182.867 484.897 186.04 484.897 189.72C484.897 193.8 484.124 197.36 482.577 200.4C481.03 203.413 478.91 205.747 476.217 207.4C473.55 209.053 470.524 209.88 467.137 209.88C464.417 209.88 462.15 209.373 460.337 208.36C458.55 207.347 457.07 205.773 455.897 203.64L457.577 202.56C458.377 204.107 459.31 205.253 460.377 206C461.47 206.747 462.697 207.12 464.057 207.12C465.604 207.12 466.964 206.627 468.137 205.64C469.337 204.653 470.27 202.987 470.937 200.64C471.63 198.267 471.977 195.04 471.977 190.96C471.977 187.227 471.67 184.24 471.057 182C470.47 179.76 469.644 178.133 468.577 177.12C467.537 176.08 466.324 175.56 464.937 175.56C463.604 175.56 462.297 175.987 461.017 176.84C459.737 177.693 458.537 179.027 457.417 180.84ZM508.286 204.8V204.24L507.606 204.6V177.88C507.606 176.44 507.259 175.32 506.566 174.52C505.899 173.72 504.979 173.32 503.806 173.32C502.552 173.32 501.579 173.64 500.886 174.28C500.219 174.92 499.886 175.707 499.886 176.64V180.44C499.886 182.12 499.286 183.52 498.086 184.64C496.912 185.733 495.326 186.28 493.326 186.28C491.832 186.28 490.646 185.893 489.766 185.12C488.886 184.32 488.446 183.16 488.446 181.64C488.446 180.12 489.086 178.613 490.366 177.12C491.672 175.6 493.592 174.347 496.126 173.36C498.686 172.347 501.846 171.84 505.606 171.84C510.512 171.84 514.166 172.813 516.566 174.76C518.992 176.68 520.206 179.413 520.206 182.96V203.12C520.206 203.867 520.352 204.427 520.646 204.8C520.966 205.147 521.366 205.32 521.846 205.32C522.299 205.32 522.699 205.173 523.046 204.88C523.392 204.587 523.632 204.133 523.766 203.52C523.846 203.387 523.926 203.293 524.006 203.24C524.086 203.16 524.179 203.12 524.286 203.12C524.446 203.12 524.566 203.187 524.646 203.32C524.726 203.427 524.766 203.587 524.766 203.8C524.766 204.493 524.459 205.32 523.846 206.28C523.259 207.213 522.312 208.04 521.006 208.76C519.699 209.48 517.966 209.84 515.806 209.84C513.299 209.84 511.419 209.373 510.166 208.44C508.912 207.48 508.286 206.267 508.286 204.8ZM486.486 200.96C486.486 197.76 487.846 195.227 490.566 193.36C493.286 191.467 497.526 190.52 503.286 190.52C504.752 190.52 505.979 190.667 506.966 190.96C507.979 191.227 508.872 191.587 509.646 192.04L509.086 193.16C508.312 192.76 507.552 192.467 506.806 192.28C506.059 192.093 505.232 192 504.326 192C502.672 192 501.379 192.6 500.446 193.8C499.539 195 499.086 196.747 499.086 199.04C499.086 201.253 499.526 202.907 500.406 204C501.312 205.093 502.472 205.64 503.886 205.64C504.819 205.64 505.726 205.4 506.606 204.92C507.512 204.413 508.259 203.747 508.846 202.92L509.446 203.96C508.272 205.853 506.592 207.307 504.406 208.32C502.246 209.333 499.912 209.84 497.406 209.84C494.206 209.84 491.579 209.013 489.526 207.36C487.499 205.68 486.486 203.547 486.486 200.96ZM559.349 182.32C559.349 184.053 558.815 185.467 557.749 186.56C556.682 187.627 555.215 188.16 553.349 188.16C551.482 188.16 550.042 187.627 549.029 186.56C548.015 185.467 547.509 183.933 547.509 181.96V179.16C547.509 177.48 547.122 176.173 546.349 175.24C545.575 174.307 544.535 173.84 543.229 173.84C541.949 173.84 540.815 174.333 539.829 175.32C538.869 176.28 538.109 177.68 537.549 179.52C537.015 181.36 536.749 183.587 536.749 186.2C536.749 189.587 537.242 192.44 538.229 194.76C539.242 197.08 540.615 198.84 542.349 200.04C544.082 201.24 546.069 201.84 548.309 201.84C550.602 201.84 552.562 201.4 554.189 200.52C555.815 199.64 556.989 198.24 557.709 196.32C557.895 196.053 558.055 195.88 558.189 195.8C558.349 195.693 558.509 195.653 558.669 195.68C558.855 195.68 558.989 195.773 559.069 195.96C559.175 196.147 559.215 196.373 559.189 196.64C558.815 199.307 557.895 201.627 556.429 203.6C554.989 205.573 553.095 207.107 550.749 208.2C548.402 209.293 545.709 209.84 542.669 209.84C539.282 209.84 536.255 209.147 533.589 207.76C530.922 206.347 528.815 204.293 527.269 201.6C525.749 198.907 524.989 195.627 524.989 191.76C524.989 187.92 525.802 184.507 527.429 181.52C529.055 178.533 531.322 176.173 534.229 174.44C537.135 172.68 540.509 171.8 544.349 171.8C547.575 171.8 550.295 172.267 552.509 173.2C554.749 174.133 556.442 175.4 557.589 177C558.762 178.573 559.349 180.347 559.349 182.32ZM596.051 187.64C596.051 188.307 595.851 188.827 595.451 189.2C595.077 189.573 594.504 189.76 593.731 189.76H569.011V188.12H582.371C583.117 188.12 583.491 187.733 583.491 186.96C583.491 182.4 582.944 179.067 581.851 176.96C580.757 174.853 579.451 173.8 577.931 173.8C576.784 173.8 575.757 174.24 574.851 175.12C573.944 176 573.224 177.387 572.691 179.28C572.184 181.173 571.931 183.627 571.931 186.64C571.931 192 573.064 195.96 575.331 198.52C577.624 201.08 580.651 202.36 584.411 202.36C587.024 202.36 589.224 201.733 591.011 200.48C592.824 199.227 593.944 197.48 594.371 195.24C594.557 194.973 594.717 194.8 594.851 194.72C595.011 194.64 595.144 194.6 595.251 194.6C595.437 194.6 595.584 194.68 595.691 194.84C595.824 195 595.877 195.24 595.851 195.56C595.797 198.227 595.024 200.653 593.531 202.84C592.064 205 590.064 206.72 587.531 208C584.997 209.253 582.131 209.88 578.931 209.88C575.304 209.88 572.091 209.12 569.291 207.6C566.517 206.053 564.331 203.907 562.731 201.16C561.157 198.387 560.371 195.187 560.371 191.56C560.371 187.56 561.144 184.093 562.691 181.16C564.237 178.2 566.451 175.907 569.331 174.28C572.211 172.627 575.611 171.8 579.531 171.8C582.971 171.8 585.917 172.493 588.371 173.88C590.824 175.24 592.717 177.12 594.051 179.52C595.384 181.893 596.051 184.6 596.051 187.64Z" fill="url(#paint0_linear_3290_8125)"/>
<defs>
<linearGradient id="paint0_linear_3290_8125" x1="751.783" y1="282.087" x2="-19.3864" y2="208.425" gradientUnits="userSpaceOnUse">
<stop stop-color="white"/>
<stop offset="1" stop-color="#FFD3D1"/>
</linearGradient>
</defs>
</svg>
