<svg width="162" height="45" viewBox="0 0 162 45" fill="none" xmlns="http://www.w3.org/2000/svg">
<g clip-path="url(#clip0_3290_8153)">
<path d="M16.966 10.7573C15.5391 8.63022 13.2556 7.32205 10.2368 7.32205C4.60809 7.32205 -0.000183105 11.9037 -0.000183105 17.5476C-0.000183105 23.2342 4.60809 27.8146 10.2368 27.8146C13.2556 27.8146 15.5391 26.5052 16.966 24.3793V27.8146H20.4738V7.32205H16.966V10.7573ZM10.2368 24.3379C6.52518 24.3379 3.46634 21.3115 3.46634 17.5476C3.46634 13.8251 6.52518 10.7987 10.2368 10.7987C13.9484 10.7987 16.966 13.8251 16.966 17.5476C16.966 21.3115 13.9484 24.3379 10.2368 24.3379Z" fill="white"/>
<path d="M23.1356 27.8145H23.5445H26.1131H26.4807V7.32202H23.1356V27.8145Z" fill="white"/>
<path d="M29.1434 21.5743V21.6193V27.3643V27.8145H29.5923H31.9984H32.4873V27.3643V21.6193V21.5743V16.1981C32.4873 13.1303 34.9759 10.6758 37.9935 10.6758C41.0523 10.6758 43.5409 13.1704 43.5409 16.1981V16.3611V21.5743V21.6193V27.3643V27.8145H43.9886H46.3959H46.8849V27.3643V21.6193V21.5743V16.6483V16.321V16.1981C46.8849 13.1303 49.3734 10.6758 52.391 10.6758C55.4499 10.6758 57.9372 13.1704 57.9372 16.1981V16.2796V21.5743V21.6193V27.3643V27.8145H58.3861H60.7922H61.2824V27.3643V21.6193V21.5743V16.6483V16.5254V16.1981C61.2824 13.8251 60.3445 11.6164 58.6713 9.89819C56.9993 8.22131 54.757 7.32202 52.391 7.32202C49.047 7.32202 47.0074 9.65359 45.8244 11.9852C45.4167 11.2477 44.8865 10.5529 44.275 9.89819C42.603 8.22131 40.3595 7.32202 37.9935 7.32202C35.6287 7.32202 33.7929 9.03906 32.4873 11.0031V7.77106V7.32202H31.9984H29.5923H29.1434V7.77106V21.5743Z" fill="white"/>
<path d="M68.9626 24.4194C67.8609 24.4194 66.923 23.5202 66.923 22.4152V10.3083H71.695V7.32206H66.923V3.39514V2.94489H66.474H64.0267H63.579V3.39514V7.32206V10.3083V22.4152C63.579 25.4015 65.985 27.8146 68.9626 27.8146H71.695V24.4194H68.9626Z" fill="white"/>
<path fill-rule="evenodd" clip-rule="evenodd" d="M24.8093 0C26.2338 0 27.3901 1.1597 27.3901 2.58955C27.3901 4.01819 26.2338 5.17789 24.8093 5.17789C23.3837 5.17789 22.2274 4.01819 22.2274 2.58955C22.2274 1.1597 23.3837 0 24.8093 0Z" fill="white"/>
<path d="M119.472 10.7573C118.044 8.63018 115.76 7.32202 112.743 7.32202C107.073 7.32202 102.506 11.9036 102.506 17.5476C102.506 23.2341 107.073 27.8145 112.743 27.8145C115.76 27.8145 118.044 26.5052 119.472 24.3792V27.733C119.472 31.4957 115.638 34.5233 111.926 34.5233C109.52 34.5233 107.399 33.2553 106.216 31.3326L103.076 32.8866C104.83 35.9544 108.133 38 111.926 38C117.514 38 122.857 33.4597 122.938 27.8961V27.733V7.32202H119.472V10.7573ZM112.743 24.3379C108.99 24.3379 105.972 21.3115 105.972 17.5476C105.972 13.8251 108.99 10.7987 112.743 10.7987C116.453 10.7987 119.472 13.8251 119.472 17.5476C119.472 21.3115 116.453 24.3379 112.743 24.3379Z" fill="white"/>
<path d="M135.586 7.32202C132.854 7.32202 130.325 8.38559 128.367 10.3083C126.45 12.2711 125.389 14.8485 125.389 17.5476C125.389 20.288 126.45 22.8654 128.367 24.8283C130.325 26.751 132.854 27.8145 135.586 27.8145C137.462 27.8145 139.257 27.3241 140.847 26.3835C142.356 25.4428 143.62 24.1334 144.518 22.5795L141.582 20.9427C140.358 23.1112 138.074 24.4608 135.586 24.4608C132.201 24.4608 129.386 22.0063 128.816 18.5296H144.861H145.782H145.823V17.6535C145.823 17.6182 145.823 17.5829 145.823 17.5476L145.822 17.5293C145.817 14.8364 144.758 12.2663 142.846 10.3083C140.887 8.38559 138.319 7.32202 135.586 7.32202ZM129.02 15.5434C129.876 12.7214 132.528 10.6758 135.586 10.6758C138.685 10.6758 141.296 12.7214 142.193 15.5434H129.02Z" fill="white"/>
<path d="M153.463 24.4194C152.362 24.4194 151.424 23.5202 151.424 22.4152V10.3083H156.196V7.32206H151.424V3.39514V2.94489H150.976H148.529H148.08V3.39514V7.32206V10.3083V22.4152C148.08 25.4015 150.486 27.8146 153.463 27.8146H156.196V24.4194H153.463Z" fill="white"/>
<path fill-rule="evenodd" clip-rule="evenodd" d="M87.079 4.38327C94.6624 4.38327 100.81 10.5493 100.81 18.1549C100.81 23.7782 97.4494 28.6141 92.6325 30.7534L90.6766 26.3154C93.7973 24.9306 95.974 21.7983 95.974 18.1549C95.974 13.2277 91.9918 9.23382 87.079 9.23382C82.1662 9.23382 78.184 13.2277 78.184 18.1549C78.184 21.7983 80.3607 24.9306 83.4814 26.3154L81.5267 30.7534C76.7098 28.6141 73.3476 23.7782 73.3476 18.1549C73.3476 10.5493 79.4956 4.38327 87.079 4.38327Z" fill="white"/>
<path fill-rule="evenodd" clip-rule="evenodd" d="M87.079 12.1678C90.3769 12.1678 93.0487 14.8486 93.0487 18.1549C93.0487 20.5996 91.5878 22.7024 89.4936 23.6321L87.079 18.1524L84.6645 23.6321C82.5702 22.7024 81.1094 20.5996 81.1094 18.1549C81.1094 14.8486 83.7824 12.1678 87.079 12.1678Z" fill="white"/>
<path d="M133.728 34V45.232H130.992V40.608H126.736V45.232H124V34H126.736V38.4H130.992V34H133.728Z" fill="white"/>
<path d="M138.391 34V40.72C138.391 41.392 138.556 41.9093 138.887 42.272C139.218 42.6347 139.703 42.816 140.343 42.816C140.983 42.816 141.474 42.6347 141.815 42.272C142.156 41.9093 142.327 41.392 142.327 40.72V34H145.063V40.704C145.063 41.7067 144.85 42.5547 144.423 43.248C143.996 43.9413 143.42 44.464 142.695 44.816C141.98 45.168 141.18 45.344 140.295 45.344C139.41 45.344 138.615 45.1733 137.911 44.832C137.218 44.48 136.668 43.9573 136.263 43.264C135.858 42.56 135.655 41.7067 135.655 40.704V34H138.391Z" fill="white"/>
<path d="M153.784 39.472C154.435 39.6107 154.958 39.936 155.352 40.448C155.747 40.9493 155.944 41.5253 155.944 42.176C155.944 43.1147 155.614 43.8613 154.952 44.416C154.302 44.96 153.39 45.232 152.216 45.232H146.984V34H152.04C153.182 34 154.072 34.2613 154.712 34.784C155.363 35.3067 155.688 36.016 155.688 36.912C155.688 37.5733 155.512 38.1227 155.16 38.56C154.819 38.9973 154.36 39.3013 153.784 39.472ZM149.72 38.544H151.512C151.96 38.544 152.302 38.448 152.536 38.256C152.782 38.0533 152.904 37.76 152.904 37.376C152.904 36.992 152.782 36.6987 152.536 36.496C152.302 36.2933 151.96 36.192 151.512 36.192H149.72V38.544ZM151.736 43.024C152.195 43.024 152.547 42.9227 152.792 42.72C153.048 42.5067 153.176 42.2027 153.176 41.808C153.176 41.4133 153.043 41.104 152.776 40.88C152.52 40.656 152.163 40.544 151.704 40.544H149.72V43.024H151.736Z" fill="white"/>
</g>
<defs>
<clipPath id="clip0_3290_8153">
<rect width="162" height="45" fill="white"/>
</clipPath>
</defs>
</svg>
