<svg width="125" height="35" viewBox="0 0 125 35" fill="none" xmlns="http://www.w3.org/2000/svg">
<g clip-path="url(#clip0_3403_33312)">
<path d="M13.0909 8.36684C11.9899 6.71241 10.228 5.69495 7.89866 5.69495C3.55553 5.69495 -0.000244141 9.25842 -0.000244141 13.6482C-0.000244141 18.071 3.55553 21.6336 7.89866 21.6336C10.228 21.6336 11.9899 20.6152 13.0909 18.9617V21.6336H15.7976V5.69495H13.0909V8.36684ZM7.89866 18.9295C5.03476 18.9295 2.67454 16.5756 2.67454 13.6482C2.67454 10.7529 5.03476 8.39902 7.89866 8.39902C10.7626 8.39902 13.0909 10.7529 13.0909 13.6482C13.0909 16.5756 10.7626 18.9295 7.89866 18.9295Z" fill="black"/>
<path d="M17.8516 21.6335H18.1671H20.1491H20.4327V5.69492H17.8516V21.6335Z" fill="black"/>
<path d="M22.4871 16.78V16.815V21.2833V21.6335H22.8335H24.69H25.0673V21.2833V16.815V16.78V12.5985C25.0673 10.2124 26.9875 8.3034 29.3159 8.3034C31.6761 8.3034 33.5963 10.2437 33.5963 12.5985V12.7253V16.78V16.815V21.2833V21.6335H33.9417H35.7992H36.1765V21.2833V16.815V16.78V12.9487V12.6941V12.5985C36.1765 10.2124 38.0967 8.3034 40.4251 8.3034C42.7853 8.3034 44.7045 10.2437 44.7045 12.5985V12.6619V16.78V16.815V21.2833V21.6335H45.0509H46.9075H47.2857V21.2833V16.815V16.78V12.9487V12.8531V12.5985C47.2857 10.7529 46.562 9.03502 45.2709 7.6986C43.9808 6.39436 42.2507 5.69492 40.4251 5.69492C37.8448 5.69492 36.271 7.50836 35.3582 9.32181C35.0437 8.74824 34.6345 8.20781 34.1627 7.6986C32.8726 6.39436 31.1415 5.69492 29.3159 5.69492C27.4912 5.69492 26.0747 7.03039 25.0673 8.558V6.04417V5.69492H24.69H22.8335H22.4871V6.04417V16.78Z" fill="black"/>
<path d="M53.2119 18.9929C52.3618 18.9929 51.6381 18.2935 51.6381 17.4341V8.01758H55.3202V5.69493H51.6381V2.64066V2.29047H51.2917H49.4033H49.0579V2.64066V5.69493V8.01758V17.4341C49.0579 19.7567 50.9144 21.6336 53.2119 21.6336H55.3202V18.9929H53.2119Z" fill="black"/>
<path fill-rule="evenodd" clip-rule="evenodd" d="M19.1429 0C20.242 0 21.1343 0.90199 21.1343 2.0141C21.1343 3.12526 20.242 4.02725 19.1429 4.02725C18.0429 4.02725 17.1506 3.12526 17.1506 2.0141C17.1506 0.90199 18.0429 0 19.1429 0Z" fill="black"/>
<path d="M92.1849 8.36681C91.083 6.71238 89.321 5.69492 86.9926 5.69492C82.6177 5.69492 79.0938 9.25839 79.0938 13.6481C79.0938 18.071 82.6177 21.6335 86.9926 21.6335C89.321 21.6335 91.083 20.6151 92.1849 18.9616V21.5701C92.1849 24.4966 89.2265 26.8515 86.3626 26.8515C84.506 26.8515 82.8695 25.8652 81.9567 24.3698L79.5338 25.5784C80.8876 27.9645 83.4359 29.5555 86.3626 29.5555C90.6739 29.5555 94.797 26.0242 94.8597 21.697V21.5701V5.69492H92.1849V8.36681ZM86.9926 18.9295C84.0969 18.9295 81.7685 16.5756 81.7685 13.6481C81.7685 10.7529 84.0969 8.39899 86.9926 8.39899C89.8556 8.39899 92.1849 10.7529 92.1849 13.6481C92.1849 16.5756 89.8556 18.9295 86.9926 18.9295Z" fill="black"/>
<path d="M104.619 5.69492C102.511 5.69492 100.56 6.52213 99.0485 8.01756C97.5692 9.54423 96.751 11.5489 96.751 13.6481C96.751 15.7796 97.5692 17.7842 99.0485 19.3109C100.56 20.8063 102.511 21.6335 104.619 21.6335C106.066 21.6335 107.451 21.2521 108.678 20.5205C109.842 19.7889 110.818 18.7705 111.51 17.5618L109.245 16.2888C108.301 17.9754 106.538 19.0251 104.619 19.0251C102.007 19.0251 99.8349 17.116 99.3949 14.4119H111.775H112.486H112.518V13.7305C112.518 13.703 112.518 13.6756 112.518 13.6481L112.517 13.6339C112.513 11.5394 111.696 9.54044 110.22 8.01756C108.709 6.52213 106.727 5.69492 104.619 5.69492ZM99.5521 12.0893C100.213 9.89442 102.259 8.3034 104.619 8.3034C107.01 8.3034 109.025 9.89442 109.717 12.0893H99.5521Z" fill="black"/>
<path d="M118.413 18.9929C117.563 18.9929 116.839 18.2935 116.839 17.4341V8.01758H120.521V5.69493H116.839V2.64066V2.29047H116.494H114.605H114.259V2.64066V5.69493V8.01758V17.4341C114.259 19.7567 116.116 21.6336 118.413 21.6336H120.521V18.9929H118.413Z" fill="black"/>
<path fill-rule="evenodd" clip-rule="evenodd" d="M67.1904 3.40921C73.0418 3.40921 77.7856 8.205 77.7856 14.1205C77.7856 18.4941 75.1923 22.2554 71.4755 23.9193L69.9663 20.4675C72.3743 19.3904 74.0539 16.9542 74.0539 14.1205C74.0539 10.2882 70.9812 7.18186 67.1904 7.18186C63.3997 7.18186 60.327 10.2882 60.327 14.1205C60.327 16.9542 62.0066 19.3904 64.4145 20.4675L62.9063 23.9193C59.1895 22.2554 56.5952 18.4941 56.5952 14.1205C56.5952 8.205 61.339 3.40921 67.1904 3.40921Z" fill="black"/>
<path fill-rule="evenodd" clip-rule="evenodd" d="M67.1904 9.46381C69.7351 9.46381 71.7966 11.5489 71.7966 14.1205C71.7966 16.0219 70.6694 17.6574 69.0535 18.3805L67.1904 14.1186L65.3274 18.3805C63.7114 17.6574 62.5842 16.0219 62.5842 14.1205C62.5842 11.5489 64.6467 9.46381 67.1904 9.46381Z" fill="black"/>
<path d="M103.185 26.4445V35.1805H101.074V31.584H97.7901V35.1805H95.679V26.4445H97.7901V29.8667H101.074V26.4445H103.185Z" fill="black"/>
<path d="M106.783 26.4445V31.6711C106.783 32.1938 106.911 32.5962 107.166 32.8782C107.421 33.1603 107.796 33.3013 108.289 33.3013C108.783 33.3013 109.162 33.1603 109.425 32.8782C109.689 32.5962 109.82 32.1938 109.82 31.6711V26.4445H111.931V31.6587C111.931 32.4385 111.767 33.0981 111.438 33.6373C111.108 34.1766 110.664 34.5831 110.104 34.8569C109.553 35.1307 108.935 35.2676 108.252 35.2676C107.569 35.2676 106.956 35.1348 106.413 34.8693C105.878 34.5956 105.454 34.1891 105.141 33.6498C104.828 33.1022 104.672 32.4385 104.672 31.6587V26.4445H106.783Z" fill="black"/>
<path d="M118.661 30.7005C119.163 30.8083 119.566 31.0613 119.871 31.4596C120.175 31.8495 120.327 32.2975 120.327 32.8036C120.327 33.5336 120.072 34.1144 119.562 34.5458C119.06 34.9689 118.356 35.1805 117.451 35.1805H113.414V26.4445H117.315C118.196 26.4445 118.883 26.6477 119.377 27.0542C119.879 27.4608 120.13 28.0125 120.13 28.7093C120.13 29.2237 119.994 29.651 119.722 29.9911C119.459 30.3313 119.105 30.5677 118.661 30.7005ZM115.525 29.9787H116.908C117.253 29.9787 117.517 29.904 117.698 29.7547C117.887 29.5971 117.982 29.3689 117.982 29.0702C117.982 28.7716 117.887 28.5434 117.698 28.3858C117.517 28.2282 117.253 28.1493 116.908 28.1493H115.525V29.9787ZM117.08 33.4631C117.434 33.4631 117.706 33.3843 117.895 33.2267C118.093 33.0608 118.192 32.8243 118.192 32.5173C118.192 32.2104 118.089 31.9698 117.883 31.7956C117.685 31.6213 117.41 31.5342 117.056 31.5342H115.525V33.4631H117.08Z" fill="black"/>
</g>
<defs>
<clipPath id="clip0_3403_33312">
<rect width="125" height="35" fill="white"/>
</clipPath>
</defs>
</svg>
