<svg width="49" height="48" viewBox="0 0 49 48" fill="none" xmlns="http://www.w3.org/2000/svg">
<g clip-path="url(#clip0_3290_8136)">
<path d="M0.300049 24C0.300049 10.745 11.045 0 24.3 0C37.555 0 48.3 10.745 48.3 24C48.3 37.255 37.555 48 24.3 48C11.045 48 0.300049 37.255 0.300049 24Z" fill="#89A9F9" fill-opacity="0.19"/>
<path d="M33.898 15.467V29.333C33.898 29.616 33.786 29.887 33.586 30.087C33.386 30.287 33.115 30.4 32.832 30.4C32.549 30.4 32.278 30.287 32.078 30.087C31.877 29.887 31.765 29.616 31.765 29.333V18.042L16.52 33.288C16.32 33.488 16.049 33.6 15.766 33.6C15.483 33.6 15.211 33.488 15.011 33.288C14.811 33.088 14.698 32.816 14.698 32.533C14.698 32.25 14.811 31.979 15.011 31.778L30.257 16.534H18.966C18.683 16.534 18.411 16.421 18.211 16.221C18.011 16.021 17.899 15.75 17.899 15.467C17.899 15.184 18.011 14.913 18.211 14.713C18.411 14.513 18.683 14.4 18.966 14.4H32.832C33.115 14.4 33.386 14.513 33.586 14.713C33.786 14.913 33.898 15.184 33.898 15.467Z" fill="#F0F0F9"/>
</g>
<defs>
<clipPath id="clip0_3290_8136">
<rect width="48" height="48" fill="white" transform="translate(0.300049)"/>
</clipPath>
</defs>
</svg>
