<svg width="16" height="16" viewBox="0 0 16 16" fill="none" xmlns="http://www.w3.org/2000/svg">
<path d="M14.5256 5.03057L6.52559 13.0306C6.45591 13.1005 6.37312 13.156 6.28196 13.1938C6.19079 13.2317 6.09305 13.2512 5.99434 13.2512C5.89563 13.2512 5.79789 13.2317 5.70673 13.1938C5.61557 13.156 5.53277 13.1005 5.46309 13.0306L1.96309 9.53057C1.89333 9.4608 1.83799 9.37798 1.80023 9.28683C1.76247 9.19568 1.74304 9.09798 1.74304 8.99932C1.74304 8.90066 1.76247 8.80296 1.80023 8.71181C1.83799 8.62066 1.89333 8.53783 1.96309 8.46807C2.03286 8.3983 2.11568 8.34296 2.20683 8.30521C2.29798 8.26745 2.39568 8.24802 2.49434 8.24802C2.59301 8.24802 2.6907 8.26745 2.78185 8.30521C2.87301 8.34296 2.95583 8.3983 3.02559 8.46807L5.99497 11.4374L13.4643 3.96932C13.6052 3.82842 13.7963 3.74927 13.9956 3.74927C14.1948 3.74927 14.3859 3.82842 14.5268 3.96932C14.6677 4.11021 14.7469 4.30131 14.7469 4.50057C14.7469 4.69983 14.6677 4.89092 14.5268 5.03182L14.5256 5.03057Z" fill="black"/>
</svg>
