<svg width="17" height="17" viewBox="0 0 17 17" fill="none" xmlns="http://www.w3.org/2000/svg">
<path d="M14.9237 7.32808L11.0687 5.9262L9.66682 2.0712C9.57938 1.83062 9.42001 1.62278 9.21036 1.4759C9.00071 1.32903 8.75093 1.25024 8.49495 1.25024C8.23897 1.25024 7.98919 1.32903 7.77953 1.4759C7.56988 1.62278 7.41051 1.83062 7.32307 2.0712L5.9212 5.9262L2.0662 7.32808C1.82561 7.41552 1.61777 7.57488 1.4709 7.78454C1.32403 7.99419 1.24524 8.24397 1.24524 8.49995C1.24524 8.75593 1.32403 9.00571 1.4709 9.21536C1.61777 9.42502 1.82561 9.58439 2.0662 9.67183L5.9212 11.0737L7.32307 14.9287C7.41051 15.1693 7.56988 15.3771 7.77953 15.524C7.98919 15.6709 8.23897 15.7497 8.49495 15.7497C8.75093 15.7497 9.00071 15.6709 9.21036 15.524C9.42001 15.3771 9.57938 15.1693 9.66682 14.9287L11.0687 11.0737L14.9237 9.67183C15.1643 9.58439 15.3721 9.42502 15.519 9.21536C15.6659 9.00571 15.7447 8.75593 15.7447 8.49995C15.7447 8.24397 15.6659 7.99419 15.519 7.78454C15.3721 7.57488 15.1643 7.41552 14.9237 7.32808ZM10.4456 9.70308C10.2741 9.76522 10.1184 9.86427 9.98946 9.99322C9.86051 10.1222 9.76146 10.2779 9.69932 10.4493L8.49495 13.7618L7.29057 10.4493C7.22843 10.2779 7.12938 10.1222 7.00043 9.99322C6.87148 9.86427 6.71577 9.76522 6.54432 9.70308L3.23182 8.49995L6.54432 7.29558C6.71577 7.23343 6.87148 7.13439 7.00043 7.00543C7.12938 6.87648 7.22843 6.72078 7.29057 6.54933L8.49495 3.23683L9.69932 6.54933C9.76146 6.72078 9.86051 6.87648 9.98946 7.00543C10.1184 7.13439 10.2741 7.23343 10.4456 7.29558L13.7581 8.49995L10.4456 9.70308Z" fill="white"/>
</svg>
