<svg width="14" height="11" viewBox="0 0 14 11" fill="none" xmlns="http://www.w3.org/2000/svg">
<path d="M13.1956 2.03057L5.19564 10.0306C5.12596 10.1005 5.04316 10.156 4.952 10.1938C4.86084 10.2317 4.7631 10.2512 4.66439 10.2512C4.56568 10.2512 4.46794 10.2317 4.37677 10.1938C4.28561 10.156 4.20281 10.1005 4.13314 10.0306L0.633137 6.53057C0.563372 6.4608 0.508032 6.37798 0.470275 6.28683C0.432519 6.19568 0.413086 6.09798 0.413086 5.99932C0.413086 5.90066 0.432519 5.80296 0.470275 5.71181C0.508032 5.62066 0.563372 5.53783 0.633137 5.46807C0.702902 5.3983 0.785724 5.34296 0.876876 5.30521C0.968028 5.26745 1.06572 5.24802 1.16439 5.24802C1.26305 5.24802 1.36075 5.26745 1.4519 5.30521C1.54305 5.34296 1.62587 5.3983 1.69564 5.46807L4.66501 8.43744L12.1344 0.969318C12.2753 0.828422 12.4664 0.749268 12.6656 0.749268C12.8649 0.749268 13.056 0.828422 13.1969 0.969318C13.3378 1.11021 13.4169 1.30131 13.4169 1.50057C13.4169 1.69983 13.3378 1.89092 13.1969 2.03182L13.1956 2.03057Z" fill="white"/>
</svg>
